<svg width="70" height="24" viewBox="0 0 70 24" fill="none" xmlns="http://www.w3.org/2000/svg">
<path d="M6.75 6.5L8.76562 10.3438L13.0547 11.0938L10.0312 14.2109L10.6406 18.5L6.75 16.6016L2.83594 18.5L3.46875 14.2109L0.421875 11.0938L4.71094 10.3438L6.75 6.5Z" fill="black"/>
<path d="M20.75 6.5L22.7656 10.3438L27.0547 11.0938L24.0312 14.2109L24.6406 18.5L20.75 16.6016L16.8359 18.5L17.4688 14.2109L14.4219 11.0938L18.7109 10.3438L20.75 6.5Z" fill="black"/>
<path d="M34.75 6.5L36.7656 10.3438L41.0547 11.0938L38.0312 14.2109L38.6406 18.5L34.75 16.6016L30.8359 18.5L31.4688 14.2109L28.4219 11.0938L32.7109 10.3438L34.75 6.5Z" fill="black"/>
<path d="M48.75 6.5L50.7656 10.3438L55.0547 11.0938L52.0312 14.2109L52.6406 18.5L48.75 16.6016L44.8359 18.5L45.4688 14.2109L42.4219 11.0938L46.7109 10.3438L48.75 6.5Z" fill="black"/>
<path opacity="0.24" d="M62.75 6.5L64.7656 10.3438L69.0547 11.0938L66.0312 14.2109L66.6406 18.5L62.75 16.6016L58.8359 18.5L59.4688 14.2109L56.4219 11.0938L60.7109 10.3438L62.75 6.5Z" fill="black"/>
<mask id="mask0_644_15761" style="mask-type:alpha" maskUnits="userSpaceOnUse" x="56" y="6" width="14" height="13">
<path d="M62.75 6.5L64.7656 10.3438L69.0547 11.0938L66.0312 14.2109L66.6406 18.5L62.75 16.6016L58.8359 18.5L59.4688 14.2109L56.4219 11.0938L60.7109 10.3438L62.75 6.5Z" fill="black"/>
</mask>
<g mask="url(#mask0_644_15761)">
<rect x="56" y="2" width="7" height="19" fill="black"/>
</g>
</svg>
