<svg width="92" height="32" viewBox="0 0 92 32" fill="none" xmlns="http://www.w3.org/2000/svg">
<path fill-rule="evenodd" clip-rule="evenodd" d="M33.9393 0.905648C33.9393 1.73315 33.8233 2.01416 33.6185 1.68285C33.5133 1.51258 32.489 1.51848 32.1169 1.69158C31.6535 1.90715 31.3367 2.43799 31.2726 3.10664C31.1641 4.23453 31.4186 4.89329 32.1024 5.25553C32.4539 5.44171 33.233 5.44762 33.5711 5.26682C33.7557 5.16789 33.8766 5.17033 34.0034 5.27555C34.1001 5.35587 34.3706 5.40309 34.6046 5.38064L35.03 5.33983V2.70937V0.078914L34.4847 0.0395214L33.9393 0V0.905648ZM39.6994 1.90009C39.6858 3.71806 39.6876 4.68401 39.7053 5.18675C39.7121 5.37935 39.8061 5.41207 40.2588 5.37922L40.8042 5.33983V2.70937V0.078914L40.2588 0.0395214L39.7135 0L39.6994 1.90009ZM41.2044 0.246622C41.1692 0.303594 41.1614 0.462448 41.1871 0.599488C41.2126 0.736657 41.238 0.924253 41.2434 1.01651C41.2503 1.13354 41.4186 1.17241 41.7986 1.14483C42.3279 1.10659 42.3451 1.09132 42.3837 0.624253L42.4236 0.143071H41.846C41.5284 0.143071 41.2397 0.18965 41.2044 0.246622ZM46.8849 0.207229C46.8771 0.242516 46.8707 0.38687 46.8707 0.528017C46.8707 1.1778 46.8781 1.18589 47.4445 1.14483C47.9738 1.10659 47.991 1.09132 48.0296 0.624253L48.0695 0.143071H47.4843C47.1624 0.143071 46.8927 0.171942 46.8849 0.207229ZM36.5698 1.67695C35.9599 1.92922 35.4791 2.75197 35.4791 3.54342C35.4791 4.71571 36.221 5.40399 37.4848 5.40399C38.1047 5.40399 38.4542 5.26887 38.9115 4.85236C39.306 4.49308 39.274 4.29997 38.7927 4.13226C38.4424 4.0101 38.3467 4.0264 38.1108 4.248C37.6571 4.67413 36.6339 4.4909 36.6339 3.98341C36.6339 3.91784 37.2114 3.86421 37.9171 3.86421H39.2002V3.37007C39.2002 2.20099 38.572 1.54838 37.46 1.56262C37.1115 1.56711 36.7109 1.61857 36.5698 1.67695ZM41.2533 3.47926V5.41874L41.7986 5.37922L42.344 5.33983V3.47926V1.61869L41.7986 1.5793L41.2533 1.53978V3.47926ZM43.8837 1.67695C43.5325 1.8222 43.0949 2.31455 42.93 2.74979C42.7279 3.2832 42.7673 3.8592 43.0484 4.47858C43.3671 5.18098 43.9557 5.45634 44.9597 5.37319C45.5666 5.32277 45.7156 5.25271 46.0945 4.83915C46.6006 4.28701 46.5861 4.10531 46.0229 3.94376C45.6681 3.84201 45.5753 3.87062 45.3012 4.16639C44.7151 4.79873 43.9479 4.42533 43.9479 3.50788C43.9479 2.53628 44.7887 2.07485 45.3166 2.75659C45.5203 3.01977 45.6079 3.04504 45.9689 2.94547C46.2364 2.87156 46.3843 2.7512 46.3816 2.60942C46.3756 2.3012 45.9636 1.8394 45.5565 1.68465C45.1521 1.53093 44.2469 1.52682 43.8837 1.67695ZM46.8925 2.15672C46.88 3.3154 46.8782 4.69787 46.8886 5.05844C46.8986 5.40155 46.9251 5.41682 47.4445 5.37922L47.9898 5.33983V3.47926V1.61869L47.4445 1.5793L46.8991 1.53978L46.8925 2.15672ZM49.324 1.84581C47.7175 2.91904 48.4614 5.40399 50.3891 5.40399C50.735 5.40399 51.1832 5.31853 51.3852 5.21408C52.5813 4.5956 52.7406 2.82165 51.6786 1.94628C51.2734 1.61228 51.097 1.55454 50.4817 1.55454C49.945 1.55454 49.6483 1.62922 49.324 1.84581ZM52.7855 1.77909C52.7436 2.36061 52.7933 4.10044 52.8623 4.46819C53.0049 5.22833 54.0141 5.6569 54.743 5.26682C54.9277 5.16789 55.0486 5.17033 55.1753 5.27555C55.2721 5.35587 55.5426 5.40309 55.7766 5.38064L56.202 5.33983V3.47926V1.61869H55.6887H55.1755L55.1113 2.85078C55.0451 4.12161 54.8963 4.50578 54.4697 4.50578C54.0573 4.50578 53.9185 4.14714 53.8841 2.99346C53.8658 2.37845 53.8456 1.80321 53.8395 1.71493C53.8324 1.61523 53.634 1.55454 53.3149 1.55454C52.9178 1.55454 52.798 1.60535 52.7855 1.77909ZM57.0262 1.9296C56.2423 2.71348 56.6571 3.57011 57.996 3.93247C58.4561 4.05707 58.8324 4.20104 58.8324 4.25249C58.8324 4.59727 58.0656 4.6885 57.7575 4.38042C57.5611 4.18397 57.2268 4.22157 56.9134 4.47537L56.634 4.70159L56.9445 4.99338C57.272 5.30095 58.3936 5.55412 58.8816 5.43055C59.6918 5.2255 60.1492 4.42956 59.8345 3.77285C59.6392 3.36532 59.1988 3.12152 58.4164 2.98807C57.9897 2.91519 57.8701 2.83936 57.8701 2.64162C57.8701 2.30569 58.3346 2.24449 58.7615 2.52421C59.0415 2.7077 59.1487 2.71579 59.4797 2.57875C59.9448 2.38602 59.9167 2.22793 59.3489 1.84325C59.0257 1.62421 58.7392 1.55454 58.162 1.55454C57.4922 1.55454 57.3563 1.59945 57.0262 1.9296ZM37.7602 2.52421C38.2756 2.88516 38.1214 3.09432 37.3397 3.09432C36.5591 3.09432 36.4105 2.89658 36.9226 2.53923C37.2918 2.28183 37.4111 2.27965 37.7602 2.52421ZM33.7046 2.6651C34.012 2.94329 34.0258 3.94081 33.727 4.27109C33.4625 4.56327 32.9441 4.57392 32.6342 4.29342C32.3394 4.02653 32.3194 3.13756 32.5993 2.73799C32.8381 2.39705 33.3697 2.36202 33.7046 2.6651ZM50.9959 2.79085C51.6813 3.66211 50.7814 4.9631 49.9261 4.33756C49.7864 4.23542 49.6701 3.93902 49.6299 3.58268C49.5757 3.1015 49.6126 2.94714 49.8354 2.72439C50.2075 2.35227 50.6719 2.37896 50.9959 2.79085ZM10.2267 2.73504C10.1192 2.84256 10.0727 3.53752 10.0727 5.03714C10.0727 6.41023 10.0237 7.21554 9.93684 7.26918C9.86217 7.31537 9.58783 7.2081 9.32735 7.03077C8.39116 6.39355 7.06156 6.26023 5.84193 6.68124C5.4557 6.81456 5.08589 6.89039 5.02007 6.84971C4.95424 6.80904 4.93577 6.8329 4.97888 6.90271C5.02199 6.97251 4.79526 7.28457 4.47486 7.59612C3.48183 8.56221 3.01964 9.76696 3.01694 11.3964C3.01412 13.0706 3.34825 14.0977 4.22644 15.116C5.42875 16.5099 7.79822 16.8421 9.32619 15.831C9.82919 15.498 9.85023 15.4951 10.0229 15.7313C10.1208 15.8653 10.201 16.0237 10.201 16.0833C10.201 16.1429 10.7641 16.1753 11.4521 16.155L12.7032 16.1183L12.7364 9.45425C12.7626 4.20796 12.7353 2.76827 12.6081 2.68756C12.3476 2.52216 10.4007 2.56104 10.2267 2.73504ZM13.5936 3.00424C13.5565 3.10086 13.5431 3.66596 13.5638 4.25993L13.6014 5.33983H14.9487H16.296V4.12084V2.90184L14.9785 2.86528C13.9562 2.83692 13.6459 2.86797 13.5936 3.00424ZM2.63046 3.56703C2.63046 3.98662 2.09846 4.87456 1.6355 5.22768C1.37759 5.42439 0.904236 5.65292 0.58332 5.73555L0 5.88581L0.575365 6.04287C1.60009 6.3226 2.39911 7.14548 2.63392 8.16276C2.71219 8.50177 2.73388 8.51704 2.81587 8.29108C3.25612 7.07645 3.95942 6.24817 4.68003 6.09586C4.85839 6.05814 5.11977 5.97756 5.26092 5.91674C5.49471 5.81614 5.48842 5.80549 5.19086 5.79766C4.35424 5.77533 2.88953 4.403 2.88773 3.63966C2.88734 3.48093 2.82935 3.35095 2.75877 3.35095C2.6882 3.35095 2.63046 3.44821 2.63046 3.56703ZM63.5489 4.55108L62.5552 5.0832L62.5354 5.66062C62.5244 5.9782 62.5038 6.32465 62.4894 6.43051C62.475 6.53637 62.4546 6.69522 62.4443 6.78338C62.4332 6.87666 62.2419 6.94377 61.9867 6.94377C61.1895 6.94377 61.1421 7.00498 61.1421 8.03445C61.1421 9.06341 61.1897 9.12512 61.9842 9.12512C62.3318 9.12512 62.4335 9.18377 62.4851 9.41383C62.5206 9.57256 62.565 10.9729 62.5837 12.5255C62.6162 15.2257 62.6304 15.3661 62.9086 15.7562C63.0686 15.9805 63.3862 16.2207 63.6144 16.29C64.2553 16.4848 66.2153 16.5836 66.5923 16.4402C66.9185 16.3163 66.9262 16.2872 66.8896 15.3175L66.8521 14.3219L66.1155 14.2834C65.544 14.2536 65.349 14.1895 65.2463 13.9976C65.1656 13.8466 65.1276 12.8615 65.149 11.4697L65.184 9.18928L66.0174 9.12512C66.8235 9.06302 66.8529 9.04839 66.9164 8.67872C66.9525 8.46854 66.9529 8.0066 66.9171 7.6522L66.8521 7.00793L66.0853 6.96853C65.6636 6.94698 65.2777 6.86319 65.2278 6.78248C65.1779 6.70177 65.1414 6.10638 65.1467 5.45955C65.152 4.81271 65.1158 4.21797 65.0664 4.1379C64.92 3.90129 64.5992 3.98854 63.5489 4.55108ZM60.2689 4.73033L60.3081 5.33983H60.8855H61.4629L61.502 4.73033L61.5412 4.12084H60.8855H60.2298L60.2689 4.73033ZM28.8067 5.06511C27.4735 5.53987 26.3687 6.31503 26.3687 6.77542C26.3687 7.21015 26.7704 7.15562 27.463 6.62696C28.0847 6.15232 29.0255 5.69064 29.6155 5.57067C29.9106 5.51062 29.9682 5.43902 29.9363 5.17187C29.9149 4.99287 29.8397 4.82875 29.7691 4.8072C29.6985 4.78577 29.2655 4.90176 28.8067 5.06511ZM69.0976 4.95938C69.0976 5.31083 68.6861 5.79638 68.2128 6.00335L67.7503 6.20544L68.1598 6.31977C68.5478 6.42794 69.0976 7.01229 69.0976 7.3164C69.0976 7.58547 69.2914 7.44882 69.4826 7.04488C69.5959 6.80557 69.8846 6.53162 70.1845 6.37893C70.6429 6.14539 70.6654 6.11254 70.4086 6.05044C70.0118 5.95433 69.3543 5.30442 69.3543 5.00814C69.3543 4.87302 69.2965 4.76241 69.226 4.76241C69.1554 4.76241 69.0976 4.85108 69.0976 4.95938ZM21.523 6.5483C21.2926 6.6072 20.872 6.80917 20.5883 6.99689C20.0724 7.33821 19.8247 7.3418 19.8247 7.00793C19.8247 6.91041 19.7637 6.793 19.6893 6.74693C19.5736 6.67533 18.3946 6.63864 17.4172 6.67598L17.1269 6.68714L17.1606 11.4027L17.1942 16.1183H18.4774H19.7605L19.8278 13.167C19.8838 10.7094 19.9339 10.1262 20.1265 9.68034C20.4949 8.82795 21.4257 8.51357 22.3217 8.93881C23.0418 9.28051 23.0903 9.51379 23.1609 12.9746L23.225 16.1183L24.5367 16.1549C25.8103 16.1903 25.8505 16.1828 25.9201 15.8982C25.9595 15.7369 25.9716 14.2192 25.9468 12.5255C25.896 9.04454 25.7975 8.52666 25.0105 7.60741C24.7544 7.30805 24.3176 6.94736 24.0399 6.8057C23.4754 6.51764 22.1659 6.3838 21.523 6.5483ZM30.1135 6.62273C28.6196 7.04283 27.5205 8.02636 26.9936 9.41435C26.7439 10.0726 26.6895 10.4565 26.6895 11.5631C26.6895 12.8035 26.721 12.9765 27.0861 13.7445C27.7635 15.1686 28.923 16.0287 30.5813 16.3372C31.5777 16.5225 33.2942 16.3204 34.0651 15.9271C34.7238 15.591 35.5656 14.8391 35.8082 14.37C36.1428 13.723 36.0596 13.5738 35.1904 13.2621C34.7494 13.1039 34.2785 12.9746 34.1441 12.9746C34.0098 12.9746 33.7057 13.2013 33.4684 13.4786C32.9414 14.0941 32.3539 14.3038 31.3578 14.2318C30.4882 14.1689 30.0243 13.891 29.651 13.2098C29.1733 12.3376 29.1894 12.333 32.7071 12.333C35.3893 12.333 35.8751 12.3036 36.0474 12.1314C36.2838 11.8949 36.282 11.9312 36.1248 10.5642C35.9099 8.69488 34.9721 7.3835 33.4362 6.80403C32.5023 6.45181 31.0107 6.37033 30.1135 6.62273ZM14.7562 6.68714L13.6014 6.7513V11.4348V16.1183H14.9487H16.296L16.3296 11.4723C16.3611 7.14009 16.3481 6.8193 16.1372 6.72461C16.0128 6.66866 15.3914 6.65185 14.7562 6.68714ZM51.7498 6.86255C51.6696 7.01255 51.6428 8.3102 51.6782 10.3272C51.7421 13.9731 51.8167 14.3449 52.6809 15.3265C53.461 16.2129 54.6648 16.5766 55.9409 16.3117C56.3329 16.2303 56.8206 16.0232 57.0247 15.8515C57.4296 15.5109 57.7433 15.5445 57.8467 15.9394C57.9075 16.1723 58.011 16.1891 59.1745 16.1551L60.4364 16.1183L60.4701 11.507C60.4925 8.45635 60.4588 6.85074 60.3711 6.76297C60.2235 6.61541 58.0611 6.63607 57.9138 6.78633C57.8635 6.83765 57.8043 8.1788 57.7821 9.7667C57.7468 12.2937 57.7114 12.715 57.4981 13.1446C57.2044 13.7359 56.8247 14.0048 56.1748 14.0818C55.5741 14.153 55.1434 13.9362 54.7623 13.3708C54.4781 12.9489 54.4697 12.8496 54.4697 9.87205C54.4697 7.53415 54.4318 6.7948 54.3093 6.75438C54.2212 6.72512 53.638 6.68367 53.0136 6.66212C52.0128 6.62747 51.863 6.65121 51.7498 6.86255ZM44.5553 6.82675C43.3048 7.12136 42.1754 8.06665 41.5697 9.32555C41.068 10.3685 40.9723 12.2696 41.3649 13.3894C42.1267 15.5619 43.883 16.6632 46.3938 16.5431C47.3753 16.4963 47.6417 16.4282 48.4958 16.0061C50.2143 15.1567 51.0513 13.7236 51.053 11.6273C51.0549 9.24343 49.8388 7.49809 47.7419 6.87512C47.0531 6.67046 45.3297 6.64428 44.5553 6.82675ZM32.4697 8.75455C32.8869 8.95447 33.4901 9.92799 33.3779 10.2202C33.3192 10.3735 32.9604 10.4083 31.4372 10.4083C29.3142 10.4083 29.1899 10.3458 29.6689 9.51995C30.2028 8.59929 31.4404 8.26118 32.4697 8.75455ZM9.20301 8.9211C9.37239 9.03197 9.65173 9.3688 9.82393 9.66931C10.0884 10.1312 10.1369 10.385 10.1369 11.3092C10.1369 12.7537 9.77773 13.5198 8.88492 13.9792C7.31819 14.7855 5.82525 13.5185 5.84141 11.3964C5.85052 10.2186 6.35326 9.22444 7.14458 8.81961C7.65386 8.559 8.73145 8.61212 9.20301 8.9211ZM47.1111 9.0788C47.3843 9.2084 47.5289 9.35558 47.4881 9.46221C47.4515 9.55742 47.4907 9.62158 47.5751 9.60477C47.8186 9.55626 48.2012 10.4765 48.2747 11.2877C48.4556 13.2827 47.3108 14.6114 45.644 14.3409C45.1126 14.2546 44.6658 13.9598 44.2766 13.4384C44.0458 13.1293 44.0121 12.8985 44.0121 11.6297C44.0121 10.1954 44.0174 10.1687 44.4096 9.6824C44.6281 9.41114 44.9457 9.11794 45.1153 9.03081C45.5522 8.80613 46.589 8.83103 47.1111 9.0788ZM37.0285 10.2043C36.9366 10.3149 36.8931 10.7262 36.9165 11.2629L36.9547 12.1405H38.687H40.4192L40.4579 11.2454C40.4894 10.5132 40.4558 10.3205 40.273 10.1868C39.9434 9.94583 37.2309 9.96046 37.0285 10.2043ZM1.29431 11.2191C1.11493 11.3509 1.10505 11.5043 1.21822 12.3972C1.4012 13.8398 1.64821 14.6011 2.22024 15.4862C2.7607 16.3224 3.99894 17.492 4.28482 17.4362C4.38311 17.4171 4.52747 17.2951 4.60561 17.165C4.72302 16.9694 4.69222 16.8915 4.42802 16.7159C3.07995 15.8192 2.21048 14.2799 1.97477 12.3728C1.82541 11.1651 1.68709 10.9304 1.29431 11.2191ZM88.347 14.7044C88.2584 14.811 88.2253 17.0585 88.2475 21.4579L88.2807 28.0516L89.5332 28.0883C90.7833 28.125 90.786 28.1243 90.9147 27.7859C90.9951 27.5743 91.0412 25.0656 91.0371 21.1208C91.0318 15.9679 90.9985 14.7683 90.857 14.651C90.6162 14.4511 88.5202 14.4956 88.347 14.7044ZM39.0078 14.7259C37.9891 14.9381 37.6236 15.0997 37.2808 15.4904C36.8342 15.9988 36.6356 16.6384 36.6347 17.5703C36.6337 18.5436 36.4898 18.7488 35.8091 18.7488C35.4774 18.7488 35.227 18.8141 35.1934 18.9091C35.0765 19.2405 35.0893 20.259 35.2145 20.5883C35.3246 20.8779 35.4209 20.9301 35.8452 20.9301C36.1206 20.9301 36.4096 21.007 36.4877 21.101C36.5811 21.2136 36.6413 22.4065 36.6638 24.5976L36.6981 27.9233L37.8336 27.9605C38.5603 27.9844 39.0337 27.9441 39.1488 27.8486C39.2947 27.7276 39.3286 27.0606 39.3286 24.3148V20.9301H40.1602C41.1274 20.9301 41.1667 20.8735 41.1001 19.5774L41.0608 18.8129L40.2541 18.7486C39.7331 18.7072 39.4044 18.6163 39.326 18.492C39.1804 18.2614 39.2974 17.4668 39.5104 17.2391C39.6363 17.1048 40.2896 16.9888 41.0929 16.9584C41.208 16.954 41.2533 16.6481 41.2533 15.8754C41.2533 15.0117 41.2131 14.783 41.0503 14.7206C40.8297 14.6359 39.4222 14.6396 39.0078 14.7259ZM50.492 15.7575C50.492 16.321 49.556 17.1981 48.9324 17.2191C48.6631 17.2282 48.6719 17.2436 49.0163 17.3658C49.686 17.6032 50.1313 18.0011 50.3953 18.5981L50.6513 19.1768L50.8175 18.6937C51.0164 18.1151 51.3463 17.7868 52.0414 17.4756L52.559 17.2439L52.185 17.1691C51.6676 17.0655 51.0485 16.5129 50.8572 15.9837C50.6878 15.5155 50.492 15.3941 50.492 15.7575ZM61.165 15.9624C61.0877 16.0555 61.0076 16.6484 60.9871 17.2798C60.9507 18.3979 60.9413 18.4289 60.6289 18.4639C59.6904 18.569 59.7164 18.5343 59.7573 19.6186L59.7948 20.6093L60.3722 20.6735L60.9496 20.7376L61.0138 23.6889C61.0714 26.3406 61.104 26.6844 61.3346 27.0758C61.8277 27.913 62.1458 28.0449 63.7967 28.0974C64.9478 28.134 65.3043 28.1054 65.3902 27.9697C65.4511 27.8736 65.5017 27.4382 65.5029 27.0021C65.5053 26.011 65.331 25.8025 64.5292 25.8374C64.1388 25.8543 63.9117 25.8012 63.8301 25.6739C63.7626 25.5684 63.7232 24.438 63.7409 23.1115L63.7726 20.7376L64.6066 20.6735L65.4407 20.6093V19.5828V18.5563L64.6066 18.4921L63.7726 18.428L63.7336 17.7484C63.7003 17.1689 63.6479 17.0476 63.3771 16.9242C63.1383 16.8154 63.1002 16.7502 63.2236 16.6613C63.3403 16.5773 63.3223 16.5642 63.1614 16.616C63.0301 16.6584 62.5926 16.5007 62.1203 16.2411C61.4621 15.8794 61.2784 15.8257 61.165 15.9624ZM69.226 16.8857C69.226 17.3137 69.4485 17.3546 71.5356 17.3101L73.2679 17.2731L73.3084 16.9203L73.3491 16.5674H71.2875H69.226V16.8857ZM27.9833 16.9068C27.9387 17.0232 27.9933 17.2183 28.1054 17.3422C28.4373 17.7089 30.0403 18.1568 31.0485 18.1644C31.8844 18.1708 31.9534 18.1505 31.9909 17.8871C32.036 17.5695 31.9315 17.5312 30.681 17.4063C30.265 17.3647 29.5676 17.1878 29.1311 17.0132C28.1939 16.6382 28.0901 16.6286 27.9833 16.9068ZM44.7819 18.2789C42.8745 18.7726 41.657 20.0631 41.2528 22.0198C40.789 24.2639 41.7677 26.5825 43.5741 27.5197C45.7704 28.6593 49.0922 27.9765 50.2185 26.1542C50.6989 25.3767 50.6172 25.2306 49.4975 24.865L48.5031 24.5404L48.0614 25.0617C47.8185 25.3485 47.4306 25.6621 47.1994 25.7587C46.7221 25.9583 45.6508 25.991 45.2073 25.8197C44.6045 25.5868 43.9479 24.7956 43.9479 24.3018V24.0097H47.2124C49.6763 24.0097 50.5009 23.9705 50.5754 23.8502C50.6296 23.7624 50.6647 23.2518 50.6533 22.7155C50.6205 21.182 49.9272 19.7204 48.8962 19.0112C47.8133 18.266 46.0464 17.9517 44.7819 18.2789ZM53.6357 18.2867C52.5206 18.6393 51.6539 19.3242 51.3107 20.124C51.06 20.7083 51.094 21.7929 51.3829 22.4293C51.7769 23.2973 52.6681 23.7711 54.8547 24.2757C56.2542 24.5988 56.625 24.7518 56.7181 25.0452C57.025 26.012 55.086 26.4076 53.8534 25.6295C53.5691 25.4501 53.2994 25.2432 53.2539 25.1698C53.1106 24.9379 52.7988 25.0222 52.019 25.5035C51.0634 26.0934 51.0199 26.3959 51.8072 26.9763C52.8581 27.7511 53.6362 28.0234 54.9839 28.0883C56.4394 28.1584 57.331 27.9496 58.1494 27.3471C59.2247 26.5554 59.6395 24.9903 59.0933 23.7868C58.6804 22.8772 57.7273 22.4102 55.2052 21.882C53.9902 21.6275 53.6246 21.3756 53.7492 20.8792C53.8454 20.4961 54.4579 20.1602 55.0602 20.1602C55.5797 20.1602 56.3965 20.438 56.3063 20.584C56.2624 20.655 56.2882 20.6749 56.3638 20.6283C56.4392 20.5816 56.673 20.6882 56.8833 20.8651C57.3844 21.2867 57.5561 21.2723 58.3895 20.7392C59.1871 20.229 59.2568 19.979 58.7362 19.4955C57.4978 18.3452 55.1844 17.7969 53.6357 18.2867ZM81.7367 18.5365C80.1295 18.955 79.0379 19.9878 78.7866 21.3278C78.6622 21.991 78.8706 22.1032 80.1442 22.0583L81.207 22.0208L81.4718 21.5184C81.8782 20.7476 82.3235 20.4818 83.1878 20.4941C84.0552 20.5063 84.717 20.81 84.8265 21.2459C84.9744 21.8358 84.7346 21.9652 82.7632 22.3603C80.342 22.8456 79.326 23.3092 78.8722 24.1358C78.0768 25.5845 78.6497 27.3588 80.1284 28.0263C80.5611 28.2216 80.9898 28.2909 81.8008 28.2967C82.7836 28.3037 82.9729 28.2634 83.714 27.8894C84.1663 27.661 84.5864 27.4742 84.6474 27.4742C84.7085 27.4742 84.8133 27.6185 84.8804 27.795C84.9981 28.1045 85.043 28.1158 86.1635 28.1158C87.3114 28.1158 87.3263 28.1116 87.4623 27.7629C87.643 27.2995 87.521 21.5954 87.3127 20.7683C87.0937 19.8987 86.3405 19.0912 85.4216 18.7412C84.5128 18.3951 82.6726 18.2928 81.7367 18.5365ZM66.4977 18.5809C66.2861 18.6361 66.2737 18.9432 66.3053 23.3458L66.3389 28.0516H67.622H68.9052L68.9389 23.3767C68.9652 19.722 68.9372 18.6793 68.8106 18.5989C68.6417 18.4917 66.8918 18.4781 66.4977 18.5809ZM69.7713 18.5732C69.6831 18.6109 69.6109 18.7514 69.6109 18.8854C69.6109 19.1218 71.7015 24.7189 72.9287 27.7675L73.0726 28.1251L74.322 28.0883L75.5714 28.0516L76.4412 25.6778C76.9196 24.3722 77.3939 23.073 77.4951 22.7907C77.5963 22.5084 77.8922 21.7 78.1527 20.9943C78.7609 19.3459 78.9218 18.7781 78.8117 18.668C78.6493 18.5057 76.8445 18.4573 76.5634 18.6079C76.3668 18.7131 76.1661 19.1608 75.8233 20.2581C74.531 24.395 74.5033 24.4624 74.212 24.1711C74.1438 24.1028 73.684 22.832 73.1904 21.347C72.5464 19.4097 72.2311 18.631 72.0746 18.5902C71.7538 18.5064 69.9581 18.4933 69.7713 18.5732ZM47.0663 20.5012C47.4479 20.6985 48.0062 21.7225 47.8606 21.9582C47.8145 22.0325 46.9899 22.0849 45.8651 22.0849C43.9556 22.0849 43.9479 22.0838 43.9479 21.7928C43.9479 21.632 44.0461 21.3577 44.166 21.1833C44.8039 20.2553 46.0322 19.9663 47.0663 20.5012ZM84.8198 23.7589C84.8655 23.8327 84.8632 24.1816 84.8147 24.5342C84.6599 25.6597 83.8729 26.3136 82.6336 26.3462C81.7758 26.3687 81.285 26.0105 81.2917 25.3667C81.2991 24.64 81.5692 24.4571 83.4048 23.9355C84.6072 23.5938 84.71 23.581 84.8198 23.7589ZM59.7001 27.1177C59.5434 27.4844 59.3549 27.6724 58.9854 27.8302L58.4833 28.0447L58.9831 28.2683C59.3394 28.4279 59.5468 28.6353 59.7064 28.9916L59.93 29.4914L60.1373 29.0063C60.2737 28.687 60.5046 28.4389 60.813 28.2806L61.2816 28.0403L60.8458 27.8324C60.5755 27.7036 60.3156 27.4339 60.1614 27.1222L59.9127 26.6197L59.7001 27.1177ZM77.3428 27.2599C77.0968 28.1794 75.8355 29.2362 74.936 29.2765C74.7948 29.2828 74.9557 29.3622 75.2936 29.4531C75.6313 29.5439 76.1221 29.7906 76.3843 30.0015C76.8915 30.4095 77.4096 31.3072 77.4434 31.8369C77.4595 32.0903 77.4877 32.0568 77.5771 31.6774C77.8341 30.5874 78.6576 29.7375 79.74 29.4457C80.0618 29.3589 80.2386 29.2796 80.1327 29.2694C79.6775 29.2257 79.4555 29.1457 78.923 28.8337C78.3348 28.489 77.9326 27.9577 77.6569 27.1612L77.4946 26.6924L77.3428 27.2599ZM50.7486 28.0417C50.7486 28.4476 51.8729 29.1684 53.1224 29.5638C54.3267 29.9449 56.5003 29.951 57.5383 29.5762C58.297 29.3024 58.6039 28.9907 58.3575 28.7444C58.2453 28.6321 57.9495 28.6662 57.1414 28.8851C55.3271 29.3763 53.2686 29.0986 51.9004 28.1779C51.1016 27.6403 50.7486 27.5986 50.7486 28.0417ZM65.2496 29.2048C65.1625 29.3097 65.1246 29.4829 65.1657 29.5897C65.2293 29.7555 65.6884 29.7838 68.313 29.7838C71.5209 29.7838 71.6538 29.7602 71.3855 29.2385C71.2805 29.0346 71.0008 29.014 68.3389 29.014C65.9013 29.014 65.3813 29.046 65.2496 29.2048Z" fill="white"/>
</svg>
