<svg width="20" height="14" viewBox="0 0 20 14" fill="none" xmlns="http://www.w3.org/2000/svg">
<path d="M10.75 0H11.5H13.5H14.0312L14.1875 0.53125L14.6875 1.90625L16.5 1H17.5V4H16.5L15.1875 3.375L16.125 6.03125C16.25 6.03125 16.375 6 16.5 6C17.8438 6 19.0938 6.5625 20 7.4375L18.9375 8.5C18.3125 7.90625 17.4375 7.5 16.5 7.5C14.8438 7.5 13.4688 8.65625 13.0938 10.1875C13.0312 10.4375 13 10.7188 13 11H12H11.5H8.5C8.5 12.6562 7.15625 14 5.5 14C3.84375 14 2.5 12.6562 2.5 11H0.5V9C0.5 6.8125 2.28125 5 4.5 5H8.5V9H11.9062C12.4375 7.8125 13.4062 6.84375 14.625 6.375L12.9375 1.5H11.5H10.75V0ZM8.5 2V4H3.5V2H8.5ZM5.5 12.5C6.3125 12.5 7 11.8438 7 11H4C4 11.8438 4.65625 12.5 5.5 12.5ZM16.5 12.5C17.0312 12.5 17.5 12.2188 17.7812 11.75C18.0625 11.3125 18.0625 10.7188 17.7812 10.25C17.5 9.8125 17.0312 9.5 16.5 9.5C15.9375 9.5 15.4688 9.8125 15.1875 10.25C14.9062 10.7188 14.9062 11.3125 15.1875 11.75C15.4688 12.2188 15.9375 12.5 16.5 12.5ZM16.5 8C17.5625 8 18.5312 8.59375 19.0938 9.5C19.625 10.4375 19.625 11.5938 19.0938 12.5C18.5312 13.4375 17.5625 14 16.5 14C15.4062 14 14.4375 13.4375 13.875 12.5C13.3438 11.5938 13.3438 10.4375 13.875 9.5C14.4375 8.59375 15.4062 8 16.5 8Z" fill="white"/>
</svg>
