<svg width="18" height="16" viewBox="0 0 18 16" fill="none" xmlns="http://www.w3.org/2000/svg">
<path d="M9 16C6.125 16 3.5 14.5 2.0625 12C0.625 9.53125 0.625 6.5 2.0625 4C3.5 1.53125 6.125 0 9 0C11.8438 0 14.4688 1.53125 15.9062 4C17.3438 6.5 17.3438 9.53125 15.9062 12C14.4688 14.5 11.8438 16 9 16ZM8.25 10.75C8.25 11.1875 8.5625 11.5 9 11.5C9.40625 11.5 9.75 11.1875 9.75 10.75V8.75H11.75C12.1562 8.75 12.5 8.4375 12.5 8C12.5 7.59375 12.1562 7.25 11.75 7.25H9.75V5.25C9.75 4.84375 9.40625 4.5 9 4.5C8.5625 4.5 8.25 4.84375 8.25 5.25V7.25H6.25C5.8125 7.25 5.5 7.59375 5.5 8C5.5 8.4375 5.8125 8.75 6.25 8.75H8.25V10.75Z" fill="#2F80ED"/>
</svg>
