<svg width="70" height="13" viewBox="0 0 70 13" fill="none" xmlns="http://www.w3.org/2000/svg">
<path opacity="0.16" fill-rule="evenodd" clip-rule="evenodd" d="M6.75 0.5L8.76562 4.34375L13.0547 5.09375L10.0312 8.21094L10.6406 12.5L6.75 10.6016L2.83594 12.5L3.46875 8.21094L0.421875 5.09375L4.71094 4.34375L6.75 0.5ZM20.75 0.5L22.7656 4.34375L27.0547 5.09375L24.0312 8.21094L24.6406 12.5L20.75 10.6016L16.8359 12.5L17.4688 8.21094L14.4219 5.09375L18.7109 4.34375L20.75 0.5ZM36.7656 4.34375L34.75 0.5L32.7109 4.34375L28.4219 5.09375L31.4688 8.21094L30.8359 12.5L34.75 10.6016L38.6406 12.5L38.0312 8.21094L41.0547 5.09375L36.7656 4.34375ZM48.75 0.5L50.7656 4.34375L55.0547 5.09375L52.0312 8.21094L52.6406 12.5L48.75 10.6016L44.8359 12.5L45.4688 8.21094L42.4219 5.09375L46.7109 4.34375L48.75 0.5ZM64.7656 4.34375L62.75 0.5L60.7109 4.34375L56.4219 5.09375L59.4688 8.21094L58.8359 12.5L62.75 10.6016L66.6406 12.5L66.0312 8.21094L69.0547 5.09375L64.7656 4.34375Z" fill="black"/>
<mask id="mask0_644_15813" style="mask-type:alpha" maskUnits="userSpaceOnUse" x="0" y="0" width="70" height="13">
<path fill-rule="evenodd" clip-rule="evenodd" d="M6.75 0.5L8.76562 4.34375L13.0547 5.09375L10.0312 8.21094L10.6406 12.5L6.75 10.6016L2.83594 12.5L3.46875 8.21094L0.421875 5.09375L4.71094 4.34375L6.75 0.5ZM20.75 0.5L22.7656 4.34375L27.0547 5.09375L24.0312 8.21094L24.6406 12.5L20.75 10.6016L16.8359 12.5L17.4688 8.21094L14.4219 5.09375L18.7109 4.34375L20.75 0.5ZM36.7656 4.34375L34.75 0.5L32.7109 4.34375L28.4219 5.09375L31.4688 8.21094L30.8359 12.5L34.75 10.6016L38.6406 12.5L38.0312 8.21094L41.0547 5.09375L36.7656 4.34375ZM48.75 0.5L50.7656 4.34375L55.0547 5.09375L52.0312 8.21094L52.6406 12.5L48.75 10.6016L44.8359 12.5L45.4688 8.21094L42.4219 5.09375L46.7109 4.34375L48.75 0.5ZM64.7656 4.34375L62.75 0.5L60.7109 4.34375L56.4219 5.09375L59.4688 8.21094L58.8359 12.5L62.75 10.6016L66.6406 12.5L66.0312 8.21094L69.0547 5.09375L64.7656 4.34375Z" fill="black"/>
</mask>
<g mask="url(#mask0_644_15813)">
<rect width="63" height="13" fill="#FDBB05"/>
</g>
</svg>
