<svg width="26" height="21" viewBox="0 0 26 21" fill="none" xmlns="http://www.w3.org/2000/svg">
<path d="M13 0.5C13.6641 0.5 14.25 1.08594 14.25 1.75V4.25H18.9375C20.4609 4.25 21.75 5.53906 21.75 7.0625V17.6875C21.75 19.25 20.4609 20.5 18.9375 20.5H7.0625C5.5 20.5 4.25 19.25 4.25 17.6875V7.0625C4.25 5.53906 5.5 4.25 7.0625 4.25H11.75V1.75C11.75 1.08594 12.2969 0.5 13 0.5ZM8.625 15.5C8.27344 15.5 8 15.8125 8 16.125C8 16.4766 8.27344 16.75 8.625 16.75H9.875C10.1875 16.75 10.5 16.4766 10.5 16.125C10.5 15.8125 10.1875 15.5 9.875 15.5H8.625ZM12.375 15.5C12.0234 15.5 11.75 15.8125 11.75 16.125C11.75 16.4766 12.0234 16.75 12.375 16.75H13.625C13.9375 16.75 14.25 16.4766 14.25 16.125C14.25 15.8125 13.9375 15.5 13.625 15.5H12.375ZM16.125 15.5C15.7734 15.5 15.5 15.8125 15.5 16.125C15.5 16.4766 15.7734 16.75 16.125 16.75H17.375C17.6875 16.75 18 16.4766 18 16.125C18 15.8125 17.6875 15.5 17.375 15.5H16.125ZM10.8125 10.5C10.8125 9.95312 10.5 9.44531 10.0312 9.17188C9.52344 8.89844 8.9375 8.89844 8.46875 9.17188C7.96094 9.44531 7.6875 9.95312 7.6875 10.5C7.6875 11.0859 7.96094 11.5938 8.46875 11.8672C8.9375 12.1406 9.52344 12.1406 10.0312 11.8672C10.5 11.5938 10.8125 11.0859 10.8125 10.5ZM16.75 12.0625C17.2969 12.0625 17.8047 11.7891 18.0781 11.2812C18.3516 10.8125 18.3516 10.2266 18.0781 9.71875C17.8047 9.25 17.2969 8.9375 16.75 8.9375C16.1641 8.9375 15.6562 9.25 15.3828 9.71875C15.1094 10.2266 15.1094 10.8125 15.3828 11.2812C15.6562 11.7891 16.1641 12.0625 16.75 12.0625ZM2.375 9.25H3V16.75H2.375C1.32031 16.75 0.5 15.9297 0.5 14.875V11.125C0.5 10.1094 1.32031 9.25 2.375 9.25ZM23.625 9.25C24.6406 9.25 25.5 10.1094 25.5 11.125V14.875C25.5 15.9297 24.6406 16.75 23.625 16.75H23V9.25H23.625Z" fill="#F40035"/>
</svg>
