<svg width="16" height="18" viewBox="0 0 16 18" fill="none" xmlns="http://www.w3.org/2000/svg">
<path d="M16 9C16 11.875 14.4688 14.5 12 15.9375C9.5 17.375 6.46875 17.375 4 15.9375C1.5 14.5 0 11.875 0 9C0 6.15625 1.5 3.53125 4 2.09375C6.46875 0.65625 9.5 0.65625 12 2.09375C14.4688 3.53125 16 6.15625 16 9ZM3.71875 8.46875L3.1875 9L3.71875 9.53125L7.21875 13.0312L7.75 13.5625L8.78125 12.5L8.25 11.9688L6.03125 9.75H11.75H12.5V8.25H11.75H6.03125L8.25 6.03125L8.78125 5.5L7.75 4.4375L7.21875 4.96875L3.71875 8.46875Z" fill="white"/>
</svg>
