<svg width="16" height="18" viewBox="0 0 16 18" fill="none" xmlns="http://www.w3.org/2000/svg">
<path d="M0 9C0 6.15625 1.5 3.53125 4 2.09375C6.46875 0.65625 9.5 0.65625 12 2.09375C14.4688 3.53125 16 6.15625 16 9C16 11.875 14.4688 14.5 12 15.9375C9.5 17.375 6.46875 17.375 4 15.9375C1.5 14.5 0 11.875 0 9ZM12.2812 9.53125L12.8125 9L12.2812 8.46875L8.78125 5L8.25 4.46875L7.1875 5.5L7.71875 6.03125L9.9375 8.25H4.25H3.5V9.75H4.25H9.9375L7.71875 11.9688L7.1875 12.5L8.25 13.5625L8.78125 13.0312L12.2812 9.53125Z" fill="white"/>
</svg>
