<svg width="18" height="16" viewBox="0 0 18 16" fill="none" xmlns="http://www.w3.org/2000/svg">
<path d="M9 16C6.125 16 3.5 14.5 2.0625 12C0.625 9.53125 0.625 6.5 2.0625 4C3.5 1.53125 6.125 0 9 0C11.8438 0 14.4688 1.53125 15.9062 4C17.3438 6.5 17.3438 9.53125 15.9062 12C14.4688 14.5 11.8438 16 9 16ZM9.53125 3.71875L9 3.1875L8.46875 3.71875L4.96875 7.21875L4.4375 7.75L5.5 8.8125L6.03125 8.28125L8.25 6.0625V11.75V12.5H9.75V11.75V6.0625L11.9688 8.28125L12.5 8.8125L13.5625 7.75L13.0312 7.21875L9.53125 3.71875Z" fill="white"/>
</svg>
