<svg width="18" height="16" viewBox="0 0 18 16" fill="none" xmlns="http://www.w3.org/2000/svg">
<path d="M9 16C6.125 16 3.5 14.5 2.0625 12C0.625 9.53125 0.625 6.5 2.0625 4C3.5 1.53125 6.125 0 9 0C11.8438 0 14.4688 1.53125 15.9062 4C17.3438 6.5 17.3438 9.53125 15.9062 12C14.4688 14.5 11.8438 16 9 16ZM9.53125 12.2812L13.0312 8.78125L13.5625 8.25L12.5 7.21875L11.9688 7.75L9.75 9.96875V4.25V3.5H8.25V4.25V9.96875L6.03125 7.75L5.5 7.21875L4.4375 8.25L4.96875 8.78125L8.46875 12.2812L9 12.8125L9.53125 12.2812Z" fill="white"/>
</svg>
