<svg width="16" height="16" viewBox="0 0 16 16" fill="none" xmlns="http://www.w3.org/2000/svg">
<path d="M5.88979 10.6782C6.22989 11.0006 6.60784 11.3589 6.96813 11.7004C6.61136 12.0628 6.28547 12.3938 5.96019 12.7241C4.87098 11.622 3.77325 10.5113 2.68832 9.41366C2.9847 9.11661 3.30614 8.7945 3.66074 8.43914C4.0073 8.81901 4.3695 9.21597 4.73869 9.62058C6.22115 8.11379 7.63222 6.67968 9.06221 5.22621C8.71805 4.89632 8.33386 4.5281 7.95968 4.1695C8.3009 3.81971 8.61866 3.49392 8.93632 3.16842C10.0303 4.276 11.1274 5.38685 12.2281 6.50134C11.9348 6.78138 11.613 7.08858 11.2604 7.42525C10.9321 7.06925 10.575 6.68198 10.2064 6.28227C8.73731 7.77843 7.33373 9.20784 5.88979 10.6782ZM7.11814 6.45869C6.79117 6.78259 6.46742 7.1032 6.06797 7.49888C5.84563 7.24611 5.62486 6.97526 5.38307 6.72474C4.99808 6.32566 4.59504 5.94416 4.2072 5.54784C3.83866 5.17117 3.38518 5.07011 2.88768 5.13955C2.44067 5.20195 2.1592 5.54586 2.07258 6.04662C2.04947 6.18 1.98106 6.3249 1.88934 6.42355C1.60634 6.72774 1.30211 7.01226 1.00576 7.3039C0.99072 7.31869 0.971584 7.32925 0.954304 7.34173C0.502176 6.98864 0.322656 6.31715 0.505312 5.6624C1.0815 3.59693 3.60816 2.92739 5.12 4.44134C5.78886 5.1112 6.45245 5.78624 7.11814 6.45869ZM6.38643 4.79792C6.03062 4.4249 5.71718 4.09629 5.38566 3.74874C5.41888 3.71162 5.47693 3.63968 5.54195 3.57485C6.15318 2.96528 6.75814 2.34925 7.37952 1.75018C8.14493 1.01219 9.06134 0.73296 10.0815 1.05142C11.1096 1.37242 11.7762 2.08586 12.0139 3.15734C12.1365 3.71034 11.9887 4.18858 11.5442 4.69472C11.1772 4.32909 10.8077 3.96835 10.4502 3.59597C10.4014 3.54515 10.4081 3.43712 10.3973 3.3545C10.3241 2.79094 9.95773 2.45069 9.3905 2.44045C8.95914 2.43264 8.57562 2.55661 8.26499 2.8776C7.64384 3.5193 7.01629 4.15478 6.38643 4.79792ZM3.54874 11.1065C3.88963 11.4692 4.21296 11.8087 4.52934 12.1545C4.58253 12.2126 4.62944 12.2951 4.63904 12.3714C4.69632 12.8244 4.85744 13.2105 5.33667 13.3424C5.8649 13.4878 6.35843 13.386 6.75482 12.994C7.39862 12.3573 8.02704 11.705 8.6359 11.0859C8.99178 11.4407 9.31843 11.7666 9.65517 12.1024C9.05059 12.7114 8.39626 13.3499 7.76634 14.0118C7.28003 14.5227 6.68922 14.7962 6.0047 14.8947C4.59923 15.097 3.06774 13.8255 3.01494 12.4167C2.99677 11.9331 3.15555 11.5208 3.54874 11.1065ZM8.07242 9.36605C8.4032 9.03478 8.71802 8.71955 9.06307 8.37398C9.20278 8.50989 9.35331 8.65382 9.50112 8.80051C10.0003 9.29578 10.4998 9.79078 10.9966 10.2884C11.3484 10.6408 11.782 10.7448 12.2572 10.6913C12.6874 10.6428 13.0117 10.3497 13.0723 9.91206C13.112 9.62496 13.2478 9.432 13.4422 9.2392C13.7062 8.97744 13.9434 8.68858 14.2027 8.39949C14.6986 8.91741 14.853 9.45395 14.7057 10.05C14.4441 11.1095 13.7657 11.8109 12.7245 12.1084C11.7199 12.3956 10.8275 12.1148 10.0857 11.3925C9.4071 10.7316 8.7495 10.0492 8.07242 9.36605ZM3.3793 5.75203C3.7016 6.07981 4.02125 6.4048 4.31776 6.7064C3.19744 7.84061 2.05658 8.99562 0.910208 10.1562C0.604 9.82486 0.289888 9.4848 0 9.17114C1.09702 8.06109 2.24013 6.90454 3.3793 5.75203ZM14.1614 5.65296C14.4913 5.98874 14.8105 6.31363 15.118 6.62659C13.988 7.77158 12.8525 8.92205 11.7388 10.0504C11.4063 9.71318 11.0828 9.38499 10.7726 9.07046C11.8677 7.96595 13.0058 6.81843 14.1614 5.65296ZM9.24829 16C8.83181 15.5772 8.41482 15.154 8.03184 14.7652C8.33917 14.4539 8.66982 14.1188 9.00534 13.7789C9.38326 14.169 9.80429 14.6037 10.2062 15.0187C9.90451 15.3278 9.58042 15.6597 9.24829 16ZM7.00374 1.2983C6.71398 1.60042 6.40557 1.92192 6.09955 2.2409C5.66688 1.79197 5.24054 1.3496 4.82608 0.919616C5.10531 0.63824 5.42528 0.315808 5.73862 0C6.15267 0.424928 6.5808 0.86432 7.00374 1.2983Z" fill="#1713CD"/>
</svg>
