<svg width="69" height="32" viewBox="0 0 69 32" fill="none" xmlns="http://www.w3.org/2000/svg">
<rect x="1" y="1.5" width="67" height="29" rx="14.5" stroke="#F4C200" strokeWidth="2"/>
<path d="M15.0956 21.5V10.4278H20.9222C23.0304 10.4278 24.1094 11.7724 24.1094 13.2498C24.1094 14.6442 23.2462 15.5738 22.2004 15.7896C23.379 15.9722 24.3252 17.1176 24.3252 18.512C24.3252 20.172 23.213 21.5 21.1048 21.5H15.0956ZM17.4528 14.8766H20.4076C21.2044 14.8766 21.7024 14.362 21.7024 13.6482C21.7024 12.9676 21.2044 12.4364 20.4076 12.4364H17.4528V14.8766ZM17.4528 19.4914H20.4906C21.387 19.4914 21.9182 18.9768 21.9182 18.18C21.9182 17.4828 21.4202 16.8852 20.4906 16.8852H17.4528V19.4914ZM26.1028 21.5V10.4278H33.938V12.453H28.46V14.86H33.8218V16.8852H28.46V19.4582H33.938V21.5H26.1028ZM38.3372 21.5V12.5028H35.1002V10.4278H43.9314V12.5028H40.711V21.5H38.3372ZM52.1248 21.5L51.4276 19.591H46.4808L45.7836 21.5H43.194L47.4768 10.4278H50.4316L54.6978 21.5H52.1248ZM48.9542 12.4696L47.1116 17.5492H50.7802L48.9542 12.4696Z" fill="#F4C200"/>
</svg>
