<svg width="120" height="120" viewBox="0 0 120 120" fill="none" xmlns="http://www.w3.org/2000/svg">
<g clip-path="url(#clip0_27_19874)">
<rect width="120" height="120"/>
<mask id="mask0_27_19874" style="mask-type:alpha" maskUnits="userSpaceOnUse" x="0" y="63" width="120" height="57">
<rect y="63.1954" width="120" height="56.8046" fill="url(#paint0_linear_27_19874)"/>
</mask>
<g mask="url(#mask0_27_19874)">
<g filter="url(#filter0_b_27_19874)">
<rect y="63.1954" width="120" height="56.8046" fill="black" fill-opacity="0.01"/>
</g>
</g>
<path d="M21.3068 97.8182V108H20.1136L14.5653 100.006H14.4659V108H13.233V97.8182H14.4261L19.9943 105.832H20.0938V97.8182H21.3068ZM26.7172 108.159C26.0278 108.159 25.4229 107.995 24.9025 107.667C24.3855 107.339 23.9811 106.88 23.6895 106.29C23.4011 105.7 23.2569 105.01 23.2569 104.222C23.2569 103.426 23.4011 102.732 23.6895 102.138C23.9811 101.545 24.3855 101.085 24.9025 100.756C25.4229 100.428 26.0278 100.264 26.7172 100.264C27.4065 100.264 28.0098 100.428 28.5268 100.756C29.0472 101.085 29.4515 101.545 29.7399 102.138C30.0315 102.732 30.1774 103.426 30.1774 104.222C30.1774 105.01 30.0315 105.7 29.7399 106.29C29.4515 106.88 29.0472 107.339 28.5268 107.667C28.0098 107.995 27.4065 108.159 26.7172 108.159ZM26.7172 107.105C27.2408 107.105 27.6717 106.971 28.0098 106.702C28.3478 106.434 28.5981 106.081 28.7605 105.643C28.9229 105.206 29.0041 104.732 29.0041 104.222C29.0041 103.711 28.9229 103.236 28.7605 102.795C28.5981 102.354 28.3478 101.998 28.0098 101.726C27.6717 101.454 27.2408 101.318 26.7172 101.318C26.1935 101.318 25.7626 101.454 25.4245 101.726C25.0865 101.998 24.8362 102.354 24.6738 102.795C24.5114 103.236 24.4302 103.711 24.4302 104.222C24.4302 104.732 24.5114 105.206 24.6738 105.643C24.8362 106.081 25.0865 106.434 25.4245 106.702C25.7626 106.971 26.1935 107.105 26.7172 107.105ZM31.9684 108V100.364H33.1019V101.517H33.1815C33.3207 101.139 33.5726 100.833 33.9371 100.597C34.3017 100.362 34.7127 100.244 35.1701 100.244C35.2563 100.244 35.364 100.246 35.4933 100.249C35.6225 100.253 35.7203 100.258 35.7866 100.264V101.457C35.7468 101.447 35.6557 101.433 35.5131 101.413C35.3739 101.389 35.2264 101.378 35.0707 101.378C34.6995 101.378 34.368 101.456 34.0763 101.612C33.788 101.764 33.5593 101.976 33.3903 102.248C33.2246 102.516 33.1417 102.823 33.1417 103.168V108H31.9684ZM40.9769 100.364V101.358H37.0195V100.364H40.9769ZM38.1729 98.5341H39.3462V105.812C39.3462 106.144 39.3943 106.393 39.4904 106.558C39.5898 106.721 39.7158 106.83 39.8683 106.886C40.024 106.939 40.1881 106.966 40.3604 106.966C40.4897 106.966 40.5958 106.959 40.6786 106.946C40.7615 106.929 40.8278 106.916 40.8775 106.906L41.1161 107.96C41.0366 107.99 40.9255 108.02 40.783 108.05C40.6405 108.083 40.4599 108.099 40.2411 108.099C39.9097 108.099 39.5849 108.028 39.2667 107.886C38.9518 107.743 38.69 107.526 38.4812 107.234C38.2757 106.943 38.1729 106.575 38.1729 106.131V98.5341ZM44.0792 103.406V108H42.9059V97.8182H44.0792V101.557H44.1786C44.3576 101.162 44.6261 100.849 44.984 100.617C45.3453 100.382 45.8259 100.264 46.4258 100.264C46.9461 100.264 47.4019 100.369 47.793 100.577C48.1841 100.783 48.4873 101.099 48.7028 101.527C48.9215 101.951 49.0309 102.491 49.0309 103.148V108H47.8576V103.227C47.8576 102.621 47.7002 102.152 47.3853 101.82C47.0737 101.486 46.6412 101.318 46.0877 101.318C45.7032 101.318 45.3585 101.399 45.0536 101.562C44.752 101.724 44.5134 101.961 44.3377 102.273C44.1654 102.584 44.0792 102.962 44.0792 103.406Z" fill="white"/>
</g>
<defs>
<filter id="filter0_b_27_19874" x="-52" y="11.1954" width="224" height="160.805" filterUnits="userSpaceOnUse" color-interpolation-filters="sRGB">
<feFlood flood-opacity="0" result="BackgroundImageFix"/>
<feGaussianBlur in="BackgroundImageFix" stdDeviation="26"/>
<feComposite in2="SourceAlpha" operator="in" result="effect1_backgroundBlur_27_19874"/>
<feBlend mode="normal" in="SourceGraphic" in2="effect1_backgroundBlur_27_19874" result="shape"/>
</filter>
<linearGradient id="paint0_linear_27_19874" x1="60" y1="63.1954" x2="60" y2="91.5977" gradientUnits="userSpaceOnUse">
<stop stop-opacity="0"/>
<stop offset="1"/>
</linearGradient>
<clipPath id="clip0_27_19874">
<rect width="120" height="120" rx="4" fill="white"/>
</clipPath>
</defs>
</svg>
