<svg width="17" height="15" viewBox="0 0 17 15" fill="none" xmlns="http://www.w3.org/2000/svg">
<path d="M7.375 3.68762C7.09375 3.81262 6.78125 3.87512 6.5 3.87512H2.5V5.87512H6.0625C6.75 5.40637 7.59375 5.12512 8.5 5.12512C9.375 5.12512 10.2188 5.40637 10.9062 5.87512H14.5V2.87512H8.96875L7.375 3.68762ZM8.5 0.875122H14.5H16.5V2.87512V12.8751V14.8751H14.5H2.5H0.5V12.8751V3.87512V1.87512H2.5V0.875122H5.5V1.87512H6.5L8.5 0.875122ZM5.75 9.37512C5.75 10.3751 6.25 11.2814 7.125 11.7814C7.96875 12.2501 9 12.2501 9.875 11.7814C10.7188 11.2814 11.25 10.3751 11.25 9.37512C11.25 8.40637 10.7188 7.50012 9.875 7.00012C9 6.53137 7.96875 6.53137 7.125 7.00012C6.25 7.50012 5.75 8.40637 5.75 9.37512Z" fill="black"/>
</svg>
