<svg width="16" height="15" viewBox="0 0 16 15" fill="none" xmlns="http://www.w3.org/2000/svg">
<path d="M6.875 3.3125C6.59375 3.4375 6.28125 3.5 6 3.5H2V5.5H5.5625C6.25 5.03125 7.09375 4.75 8 4.75C8.875 4.75 9.71875 5.03125 10.4062 5.5H14V2.5H8.46875L6.875 3.3125ZM8 0.5H14H16V2.5V12.5V14.5H14H2H0V12.5V3.5V1.5H2V0.5H5V1.5H6L8 0.5ZM5.25 9C5.25 10 5.75 10.9062 6.625 11.4062C7.46875 11.875 8.5 11.875 9.375 11.4062C10.2188 10.9062 10.75 10 10.75 9C10.75 8.03125 10.2188 7.125 9.375 6.625C8.5 6.15625 7.46875 6.15625 6.625 6.625C5.75 7.125 5.25 8.03125 5.25 9Z" fill="black"/>
</svg>
