<svg width="16" height="25" viewBox="0 0 16 25" fill="none" xmlns="http://www.w3.org/2000/svg">
<path d="M5 4C5 2.96875 5.5625 1.98438 6.5 1.42188C7.39062 0.90625 8.5625 0.90625 9.5 1.42188C10.3906 1.98438 11 2.96875 11 4C11 5.07812 10.3906 6.0625 9.5 6.625C8.5625 7.14062 7.39062 7.14062 6.5 6.625C5.5625 6.0625 5 5.07812 5 4ZM5.1875 8.5H5.9375H10.0156H10.7656L11.1875 9.10938L14.5625 13.6094L15.5 14.8281L13.0625 16.6094L12.1719 15.4375L11.75 14.8281V23.5V25H8.75V23.5V19H7.25V23.5V25H4.25V23.5V14.8281L3.78125 15.4375L2.89062 16.6094L0.5 14.8281L1.39062 13.6094L4.76562 9.10938L5.1875 8.5Z" fill="white"/>
</svg>
