<svg width="30" height="24" viewBox="0 0 30 24" fill="none" xmlns="http://www.w3.org/2000/svg">
<path d="M2.625 0.75V7.125H3.375L4.125 0.75H4.875L5.625 7.125H6.375V0.75H7.125L9 7.125C9 9.09375 7.5 10.6875 5.625 10.875V22.125V23.25H3.375V22.125V10.875C1.45312 10.6875 0 9.09375 0 7.125L1.875 0.75H2.625ZM30 0.75V9V10.125V15V22.125V23.25H27.75V22.125V15H24V7.5C24 1.5 30 0.75 30 0.75ZM15.75 1.5C18.5625 1.5 21.0938 2.625 23.0156 4.45312C22.6875 5.34375 22.5 6.32812 22.5 7.5V8.76562C21.2812 6.23438 18.7031 4.5 15.75 4.5C13.6406 4.5 11.7656 5.34375 10.4062 6.70312L9.46875 3.5625C11.25 2.29688 13.4062 1.5 15.75 1.5ZM15.75 19.5C18.7031 19.5 21.2812 17.8125 22.5 15.2812V16.5H24H25.2188C23.5312 20.0625 19.9219 22.5 15.75 22.5C12.1406 22.5 9 20.7188 7.125 18V12.0469C7.5 11.9062 7.92188 11.6719 8.25 11.4375C8.25 11.625 8.25 11.8125 8.25 12C8.25 16.1719 11.5781 19.5 15.75 19.5ZM21.75 12C21.75 14.1562 20.5781 16.125 18.75 17.2031C16.875 18.2812 14.5781 18.2812 12.75 17.2031C10.875 16.125 9.75 14.1562 9.75 12C9.75 9.89062 10.875 7.92188 12.75 6.84375C14.5781 5.76562 16.875 5.76562 18.75 6.84375C20.5781 7.92188 21.75 9.89062 21.75 12Z" fill="white"/>
</svg>
