<svg width="18" height="14" viewBox="0 0 18 14" fill="none" xmlns="http://www.w3.org/2000/svg">
<path d="M11.5 0C12.7812 0 13.8438 1 13.9688 2.28125L18 3.5V6L12.5 9.125L15.4062 12H17H18V14H17H15H14.5625L14.2812 13.7188L10.8125 10.2812C11.1875 9.15625 10.9375 7.875 10.0312 6.96875C8.75 5.6875 6.71875 5.6875 5.4375 6.96875L3.15625 9.15625L2.78125 9.5L3.46875 10.2188L3.84375 9.875L6.125 7.6875H6.15625C6.25 7.5625 6.375 7.46875 6.5 7.375C7.375 6.8125 8.5625 6.90625 9.3125 7.6875C10.0938 8.4375 10.1875 9.65625 9.59375 10.5312C9.53125 10.625 9.4375 10.75 9.3125 10.8438L8.15625 12H10H11V14H10H1H0V13V12C0 6.8125 3.96875 2.53125 9.03125 2.0625C9.25 0.90625 10.25 0 11.5 0ZM11.5 3.25C11.9062 3.25 12.25 2.9375 12.25 2.5C12.25 2.09375 11.9062 1.75 11.5 1.75C11.0625 1.75 10.75 2.09375 10.75 2.5C10.75 2.9375 11.0625 3.25 11.5 3.25Z" fill="white"/>
</svg>
