<svg width="27" height="27" viewBox="0 0 27 27" fill="none" xmlns="http://www.w3.org/2000/svg">
<path d="M15.3125 2.875C16.7188 4.32812 19.4844 5.96875 21.4531 6.4375C22.7656 6.76562 23.9375 7.5625 24.7812 8.6875C26.75 11.3594 26.2344 15.1094 23.5625 17.0781C22.7188 17.7344 21.7812 18.0625 20.7969 18.2031C19.0625 18.4844 16.8594 19.75 15.9688 21.2969C13.9062 24.8594 9.3125 26.0781 5.70312 24.0156C2.14062 21.9531 0.921875 17.3594 2.98438 13.75C4.15625 11.7812 4.8125 8.82812 5 6.48438C5.14062 5.07812 5.75 3.71875 6.82812 2.6875C9.21875 0.390625 13.0156 0.484375 15.3125 2.875ZM17.75 12.25C17.75 10.375 16.7188 8.6875 15.125 7.75C13.4844 6.76562 11.4688 6.76562 9.875 7.75C8.23438 8.6875 7.25 10.375 7.25 12.25C7.25 14.1719 8.23438 15.8594 9.875 16.7969C11.4688 17.7812 13.4844 17.7812 15.125 16.7969C16.7188 15.8594 17.75 14.1719 17.75 12.25ZM10.25 12.25H8.75C8.75 10.1875 10.3906 8.5 12.5 8.5V10C11.2344 10 10.25 11.0312 10.25 12.25Z" fill="white"/>
</svg>
