<svg width="8" height="12" viewBox="0 0 8 12" fill="none" xmlns="http://www.w3.org/2000/svg">
<path d="M2.625 3.75V5.25H6V6.75H2.625V8.0625V8.25L2.53125 8.41406L1.85156 9.75H6.75H7.5V11.25H6.75H0.75H0V10.5V10.3125V10.1484L0.0703125 9.98438L1.125 7.89844V6.75H0V5.25H1.125V3.75C1.125 2.08594 2.46094 0.75 4.10156 0.75C4.45312 0.75 4.78125 0.820312 5.10938 0.9375L6.79688 1.54688L7.52344 1.80469L7.00781 3.21094L6.30469 2.97656L4.59375 2.34375C4.42969 2.29688 4.26562 2.25 4.10156 2.25C3.28125 2.25 2.625 2.92969 2.625 3.75Z" fill="black"/>
</svg>
