<svg width="20" height="17" viewBox="0 0 20 17" fill="none" xmlns="http://www.w3.org/2000/svg">
<path d="M12.5 3C11.9375 3 11.4688 2.71875 11.1875 2.25C10.9062 1.8125 10.9062 1.21875 11.1875 0.75C11.4688 0.3125 11.9375 0 12.5 0C13.0312 0 13.5 0.3125 13.7812 0.75C14.0625 1.21875 14.0625 1.8125 13.7812 2.25C13.5 2.71875 13.0312 3 12.5 3ZM13.3438 5H16V7H12.625L11.0938 5.78125L9.21875 7.28125L11 8.46875V14H9V9.5625L7.09375 8.34375C6.0625 7.6875 6 6.21875 6.96875 5.5L10.5 2.75L13.3438 5ZM1.75 12C1.75 12.8125 2.15625 13.5625 2.875 13.9688C3.5625 14.375 4.40625 14.375 5.125 13.9688C5.8125 13.5625 6.25 12.8125 6.25 12C6.25 11.2188 5.8125 10.4688 5.125 10.0625C4.40625 9.65625 3.5625 9.65625 2.875 10.0625C2.15625 10.4688 1.75 11.2188 1.75 12ZM8 12C8 13.4375 7.21875 14.75 6 15.4688C4.75 16.1875 3.21875 16.1875 2 15.4688C0.75 14.75 0 13.4375 0 12C0 10.5938 0.75 9.28125 2 8.5625C3.21875 7.84375 4.75 7.84375 6 8.5625C7.21875 9.28125 8 10.5938 8 12ZM13.75 12C13.75 12.8125 14.1562 13.5625 14.875 13.9688C15.5625 14.375 16.4062 14.375 17.125 13.9688C17.8125 13.5625 18.25 12.8125 18.25 12C18.25 11.2188 17.8125 10.4688 17.125 10.0625C16.4062 9.65625 15.5625 9.65625 14.875 10.0625C14.1562 10.4688 13.75 11.2188 13.75 12ZM20 12C20 13.4375 19.2188 14.75 18 15.4688C16.75 16.1875 15.2188 16.1875 14 15.4688C12.75 14.75 12 13.4375 12 12C12 10.5938 12.75 9.28125 14 8.5625C15.2188 7.84375 16.75 7.84375 18 8.5625C19.2188 9.28125 20 10.5938 20 12Z" fill="black"/>
</svg>
