<svg width="28" height="28" viewBox="0 0 28 28" fill="none" xmlns="http://www.w3.org/2000/svg">
<path d="M26 0.000976562H1.99375C0.89375 0.000976562 0 0.907227 0 2.01973V25.9822C0 27.0947 0.89375 28.001 1.99375 28.001H26C27.1 28.001 28 27.0947 28 25.9822V2.01973C28 0.907227 27.1 0.000976562 26 0.000976562ZM8.4625 24.001H4.3125V10.6385H8.46875V24.001H8.4625ZM6.3875 8.81348C5.05625 8.81348 3.98125 7.73223 3.98125 6.40723C3.98125 5.08223 5.05625 4.00098 6.3875 4.00098C7.7125 4.00098 8.79375 5.08223 8.79375 6.40723C8.79375 7.73848 7.71875 8.81348 6.3875 8.81348ZM24.0187 24.001H19.8687V17.501C19.8687 15.951 19.8375 13.9572 17.7125 13.9572C15.55 13.9572 15.2188 15.6447 15.2188 17.3885V24.001H11.0688V10.6385H15.05V12.4635H15.1062C15.6625 11.4135 17.0188 10.3072 19.0375 10.3072C23.2375 10.3072 24.0187 13.076 24.0187 16.676V24.001Z" fill="black"/>
</svg>
