<svg width="16" height="16" viewBox="0 0 16 16" fill="none" xmlns="http://www.w3.org/2000/svg">
<path d="M4 4C3.28125 4 2.625 3.625 2.25 3C1.90625 2.40625 1.90625 1.625 2.25 1C2.625 0.40625 3.28125 0 4 0C4.6875 0 5.34375 0.40625 5.71875 1C6.0625 1.625 6.0625 2.40625 5.71875 3C5.34375 3.625 4.6875 4 4 4ZM5.5 5.5C5.5 6.0625 5.6875 6.59375 6 7H5.5H4.5V8V13V14H5.5V16H2V11H0.75L1 5H5.53125C5.5 5.1875 5.5 5.34375 5.5 5.5ZM10.5 14H11.5V13V8V7H10.5H10C10.3125 6.59375 10.5 6.0625 10.5 5.5C10.5 5.34375 10.4688 5.1875 10.4375 5H14L16 12H14V16H10.5V14ZM12 4C11.2812 4 10.625 3.625 10.25 3C9.90625 2.40625 9.90625 1.625 10.25 1C10.625 0.40625 11.2812 0 12 0C12.6875 0 13.3438 0.40625 13.7188 1C14.0625 1.625 14.0625 2.40625 13.7188 3C13.3438 3.625 12.6875 4 12 4ZM8 7C7.4375 7 6.96875 6.71875 6.6875 6.25C6.40625 5.8125 6.40625 5.21875 6.6875 4.75C6.96875 4.3125 7.4375 4 8 4C8.53125 4 9 4.3125 9.28125 4.75C9.5625 5.21875 9.5625 5.8125 9.28125 6.25C9 6.71875 8.53125 7 8 7ZM10.5 13H9.5V16H6.5V13H5.5V8H10.5V13Z" fill="white"/>
</svg>
