<svg width="16" height="16" viewBox="0 0 16 16" fill="none" xmlns="http://www.w3.org/2000/svg">
<mask id="path-1-inside-1_644_4745" fill="white">
<path d="M6 12.6001V9.6001L0 2.6001V0.600098H16V2.6001L10 9.6001V15.6001L6 12.6001Z"/>
</mask>
<path d="M6 12.6001V9.6001L0 2.6001V0.600098H16V2.6001L10 9.6001V15.6001L6 12.6001Z" fill="#00231B"/>
<path d="M6 12.6001H5.5V12.8501L5.7 13.0001L6 12.6001ZM6 9.6001H6.5V9.41514L6.37963 9.2747L6 9.6001ZM0 2.6001H-0.5V2.78506L-0.379628 2.92549L0 2.6001ZM0 0.600098V0.100098H-0.5V0.600098H0ZM16 0.600098H16.5V0.100098H16V0.600098ZM16 2.6001L16.3796 2.92549L16.5 2.78506V2.6001H16ZM10 9.6001L9.62037 9.2747L9.5 9.41514V9.6001H10ZM10 15.6001L9.7 16.0001L10.5 16.6001V15.6001H10ZM6.5 12.6001V9.6001H5.5V12.6001H6.5ZM6.37963 9.2747L0.379628 2.2747L-0.379628 2.92549L5.62037 9.92549L6.37963 9.2747ZM0.5 2.6001V0.600098H-0.5V2.6001H0.5ZM0 1.1001H16V0.100098H0V1.1001ZM15.5 0.600098V2.6001H16.5V0.600098H15.5ZM15.6204 2.2747L9.62037 9.2747L10.3796 9.92549L16.3796 2.92549L15.6204 2.2747ZM9.5 9.6001V15.6001H10.5V9.6001H9.5ZM10.3 15.2001L6.3 12.2001L5.7 13.0001L9.7 16.0001L10.3 15.2001Z" fill="#00231B" mask="url(#path-1-inside-1_644_4745)"/>
</svg>
