<svg width="24" height="24" viewBox="0 0 24 24" fill="none" xmlns="http://www.w3.org/2000/svg">
<path d="M16.5 12C16.5 13.0781 16.3594 14.0625 16.1719 15H7.78125C7.59375 14.0625 7.5 13.0781 7.5 12C7.5 10.9688 7.59375 9.98438 7.78125 9H16.1719C16.3594 9.98438 16.5 10.9688 16.5 12ZM17.7188 9H23.5781C23.8594 9.98438 24 10.9688 24 12C24 13.0781 23.8594 14.0625 23.5781 15H17.7188C17.9062 14.0625 18 13.0781 18 12C18 10.9688 17.9062 9.98438 17.7188 9ZM23.1094 7.5H17.3906C16.5938 4.45312 15.1406 1.875 13.9219 0.1875C18.0938 0.84375 21.5625 3.70312 23.1094 7.5ZM15.8438 7.5H8.10938C8.67188 5.625 9.46875 3.98438 10.2656 2.57812C10.875 1.54688 11.4844 0.703125 12 0.09375C12.4688 0.703125 13.0781 1.54688 13.6875 2.57812C14.4844 3.9375 15.3281 5.625 15.8438 7.5ZM6.5625 7.5H0.84375C2.39062 3.70312 5.85938 0.84375 10.0312 0.1875C8.8125 1.875 7.35938 4.45312 6.5625 7.5ZM0.375 9H6.23438C6.09375 9.98438 6 10.9688 6 12C6 13.0781 6.09375 14.0625 6.23438 15H0.375C0.09375 14.0625 0 13.0781 0 12C0 10.9688 0.09375 9.98438 0.375 9ZM8.10938 16.5H15.8438C15.2812 18.4219 14.4844 20.0625 13.6875 21.4688C13.0781 22.5 12.4688 23.3438 12 23.9531C11.4844 23.3438 10.875 22.5 10.2656 21.4688C9.46875 20.0625 8.67188 18.4219 8.10938 16.5ZM6.5625 16.5C7.35938 19.5938 8.8125 22.125 10.0312 23.8594C5.85938 23.2031 2.39062 20.3438 0.84375 16.5H6.5625ZM23.1094 16.5C21.5625 20.3438 18.0938 23.2031 13.9219 23.8594C15.1406 22.125 16.5938 19.5938 17.3906 16.5H23.1094Z" fill="white"/>
</svg>
