<svg width="48" height="48" viewBox="0 0 48 48" fill="none" xmlns="http://www.w3.org/2000/svg">
<g filter="url(#filter0_b_1634_393)">
<path fill-rule="evenodd" clip-rule="evenodd" d="M24 0C10.7452 0 0 10.7452 0 24C0 37.2548 10.7452 48 24 48C37.2548 48 48 37.2548 48 24C48 10.7452 37.2548 0 24 0ZM16.25 17C15.5469 17 15 17.5859 15 18.25C15 18.9531 15.5469 19.5 16.25 19.5H31.25C31.9141 19.5 32.5 18.9531 32.5 18.25C32.5 17.5859 31.9141 17 31.25 17H16.25ZM16.25 23.25C15.5469 23.25 15 23.8359 15 24.5C15 25.2031 15.5469 25.75 16.25 25.75H31.25C31.9141 25.75 32.5 25.2031 32.5 24.5C32.5 23.8359 31.9141 23.25 31.25 23.25H16.25ZM31.25 32C31.9141 32 32.5 31.4531 32.5 30.75C32.5 30.0859 31.9141 29.5 31.25 29.5H16.25C15.5469 29.5 15 30.0859 15 30.75C15 31.4531 15.5469 32 16.25 32H31.25Z" fill="#886D63"/>
</g>
<defs>
<filter id="filter0_b_1634_393" x="-40" y="-40" width="128" height="128" filterUnits="userSpaceOnUse" color-interpolation-filters="sRGB">
<feFlood flood-opacity="0" result="BackgroundImageFix"/>
<feGaussianBlur in="BackgroundImageFix" stdDeviation="20"/>
<feComposite in2="SourceAlpha" operator="in" result="effect1_backgroundBlur_1634_393"/>
<feBlend mode="normal" in="SourceGraphic" in2="effect1_backgroundBlur_1634_393" result="shape"/>
</filter>
</defs>
</svg>
