<svg width="16" height="21" viewBox="0 0 16 21" fill="none" xmlns="http://www.w3.org/2000/svg">
<path d="M8 2.08337C8 1.41931 8.35156 0.833374 8.9375 0.481812C9.48438 0.130249 10.2266 0.130249 10.8125 0.481812C11.3594 0.833374 11.75 1.41931 11.75 2.08337C11.75 2.7865 11.3594 3.37244 10.8125 3.724C10.2266 4.07556 9.48438 4.07556 8.9375 3.724C8.35156 3.37244 8 2.7865 8 2.08337ZM7.0625 4.81775L8.27344 5.09119L10.1484 5.55994L10.6172 5.67712L10.8906 6.10681L12.4141 8.33337H13.625V7.39587V6.45837H15.5V7.39587V8.33337V10.8334V19.2709V20.2084H13.625V19.2709V10.8334H11.75H11.0469L10.6953 10.2865L9.99219 9.23181L9.25 12.2006L11.3594 14.349L11.75 14.7006V15.2084V18.9584V20.2084H9.25V18.9584V15.7552L6.51562 13.0209H6.47656V12.9818L6.35938 12.8646C5.73438 12.2396 5.46094 11.3412 5.69531 10.4818L6.78906 6.02869L7.0625 4.81775ZM5.07031 13.2552C5.1875 13.4506 5.30469 13.6068 5.46094 13.724L7.10156 15.3646L5.8125 20.2084H3.23438L5.07031 13.2552ZM6.125 3.95837L4.25 11.4584L0.5 10.8334L2.375 3.95837H6.125Z" fill="black"/>
</svg>
