<svg width="28" height="25" viewBox="0 0 28 25" fill="none" xmlns="http://www.w3.org/2000/svg">
<path d="M27.4531 12.8C27.4531 13.6438 26.75 14.3 25.9531 14.3H24.4531L24.5 21.8C24.5 21.9407 24.5 22.0813 24.5 22.175V22.925C24.5 24.0032 23.6562 24.8 22.625 24.8H21.875C21.7812 24.8 21.7344 24.8 21.6875 24.8C21.6406 24.8 21.5469 24.8 21.5 24.8H20H18.875C17.7969 24.8 17 24.0032 17 22.925V21.8V18.8C17 18.0032 16.2969 17.3 15.5 17.3H12.5C11.6562 17.3 11 18.0032 11 18.8V21.8V22.925C11 24.0032 10.1562 24.8 9.125 24.8H8H6.5C6.40625 24.8 6.35938 24.8 6.26562 24.8C6.21875 24.8 6.17188 24.8 6.125 24.8H5.375C4.29688 24.8 3.5 24.0032 3.5 22.925V17.675C3.5 17.675 3.5 17.6282 3.5 17.5813V14.3H2C1.15625 14.3 0.5 13.6438 0.5 12.8C0.5 12.3782 0.640625 12.0032 0.96875 11.675L12.9688 1.17505C13.2969 0.846924 13.6719 0.800049 14 0.800049C14.3281 0.800049 14.7031 0.893799 14.9844 1.12817L26.9375 11.675C27.3125 12.0032 27.5 12.3782 27.4531 12.8Z" fill="black"/>
</svg>
