<svg width="20" height="14" viewBox="0 0 20 14" fill="none" xmlns="http://www.w3.org/2000/svg">
<path d="M0.5 1.5H0.46875C0.96875 0.65625 0.96875 0.65625 0.96875 0.65625H1C1.03125 0.65625 1.0625 0.6875 1.09375 0.71875C1.1875 0.75 1.34375 0.8125 1.53125 0.90625C1.90625 1.09375 2.5 1.3125 3.28125 1.5625C4.8125 2.03125 7.09375 2.5 10 2.5C12.875 2.5 15.1562 2.03125 16.6875 1.5625C17.4688 1.3125 18.0625 1.09375 18.4375 0.90625C18.625 0.84375 18.7812 0.75 18.875 0.71875C18.9062 0.6875 18.9375 0.65625 18.9688 0.65625H19C19 0.65625 19 0.65625 19.4688 1.53125C19.9688 2.375 19.9688 2.375 19.9688 2.375V2.40625C19.9375 2.40625 19.9375 2.40625 19.9062 2.40625C19.875 2.4375 19.8438 2.46875 19.7812 2.5C19.6562 2.5625 19.4688 2.65625 19.25 2.75C18.7812 2.9375 18.125 3.21875 17.2812 3.46875C16.75 3.625 16.125 3.8125 15.4688 3.9375C14.9062 4.0625 14.3125 4.1875 13.6875 4.25C13.625 4.28125 13.5312 4.28125 13.4688 4.28125C12.4062 4.4375 11.25 4.5 10 4.5C6.875 4.5 4.40625 4 2.6875 3.46875C1.84375 3.21875 1.1875 2.9375 0.71875 2.75C0.5 2.625 0.3125 2.5625 0.1875 2.5C0.125 2.46875 0.09375 2.4375 0.0625 2.40625C0.03125 2.40625 0.03125 2.40625 0 2.40625V2.375C0 2.375 0 2.375 0.5 1.5ZM3.5625 6.53125L4.15625 4.90625C4.78125 5.03125 5.4375 5.15625 6.15625 5.25L5.46875 7.21875C6.15625 7.875 6.4375 8.90625 6.09375 9.875C5.40625 11.75 2.375 12.7812 2.375 12.7812C2.375 12.7812 0.6875 10.0625 1.375 8.15625C1.71875 7.21875 2.625 6.59375 3.5625 6.53125ZM10 5.5C10.3125 5.5 10.6562 5.5 11 5.5V7.71875C11.875 8.09375 12.5 9 12.5 10C12.5 12 10 14 10 14C10 14 7.5 12 7.5 10C7.5 9 8.09375 8.09375 9 7.71875V5.5C9.3125 5.5 9.65625 5.5 10 5.5ZM15.8125 4.90625L16.4062 6.53125C17.375 6.59375 18.25 7.21875 18.5938 8.15625C19.2812 10.0312 17.625 12.7812 17.625 12.7812C17.625 12.7812 14.5625 11.75 13.9062 9.875C13.5312 8.90625 13.8125 7.875 14.5312 7.21875L13.8125 5.25C14.5312 5.15625 15.1875 5.03125 15.8125 4.90625Z" fill="black"/>
</svg>
