<svg width="12" height="12" viewBox="0 0 12 12" fill="none" xmlns="http://www.w3.org/2000/svg">
<path d="M6.75 0V0.75V1.57031C8.625 1.89844 10.1016 3.375 10.4297 5.25H11.25H12V6.75H11.25H10.4297C10.1016 8.64844 8.625 10.125 6.75 10.4531V11.25V12H5.25V11.25V10.4531C3.35156 10.125 1.875 8.64844 1.54688 6.75H0.75H0V5.25H0.75H1.54688C1.875 3.375 3.35156 1.89844 5.25 1.57031V0.75V0H6.75ZM3 6C3 7.07812 3.5625 8.0625 4.5 8.60156C5.41406 9.14062 6.5625 9.14062 7.5 8.60156C8.41406 8.0625 9 7.07812 9 6C9 4.94531 8.41406 3.96094 7.5 3.42188C6.5625 2.88281 5.41406 2.88281 4.5 3.42188C3.5625 3.96094 3 4.94531 3 6ZM6 4.125C6.65625 4.125 7.26562 4.5 7.61719 5.0625C7.94531 5.64844 7.94531 6.375 7.61719 6.9375C7.26562 7.52344 6.65625 7.875 6 7.875C5.32031 7.875 4.71094 7.52344 4.35938 6.9375C4.03125 6.375 4.03125 5.64844 4.35938 5.0625C4.71094 4.5 5.32031 4.125 6 4.125Z" fill="#2F80ED"/>
</svg>
