<svg width="48" height="48" viewBox="0 0 48 48" fill="none" xmlns="http://www.w3.org/2000/svg">
<g filter="url(#filter0_b_1476_7531)">
<path fill-rule="evenodd" clip-rule="evenodd" d="M24 0C10.7452 0 0 10.7452 0 24C0 37.2548 10.7452 48 24 48C37.2548 48 48 37.2548 48 24C48 10.7452 37.2548 0 24 0ZM20 30.9844L27.5 33.1328V18.0547L20 15.9062V30.9844ZM28.75 17.9766V33.0547L34.375 30.7891C34.7656 30.6719 35 30.3203 35 29.9297V16.8438C35 16.1797 34.2969 15.75 33.7109 15.9844L28.75 17.9766ZM18.75 15.9844L13.0859 18.25C12.7344 18.3672 12.5 18.7188 12.5 19.1094V32.1953C12.5 32.8594 13.1641 33.2891 13.75 33.0547L18.75 31.0625V15.9844Z" fill="#645F44"/>
</g>
<defs>
<filter id="filter0_b_1476_7531" x="-40" y="-40" width="128" height="128" filterUnits="userSpaceOnUse" color-interpolation-filters="sRGB">
<feFlood flood-opacity="0" result="BackgroundImageFix"/>
<feGaussianBlur in="BackgroundImageFix" stdDeviation="20"/>
<feComposite in2="SourceAlpha" operator="in" result="effect1_backgroundBlur_1476_7531"/>
<feBlend mode="normal" in="SourceGraphic" in2="effect1_backgroundBlur_1476_7531" result="shape"/>
</filter>
</defs>
</svg>
