<svg width="12" height="17" viewBox="0 0 12 17" fill="none" xmlns="http://www.w3.org/2000/svg">
<path d="M6 2C6 1.46875 6.28125 1 6.75 0.71875C7.1875 0.4375 7.78125 0.4375 8.25 0.71875C8.6875 1 9 1.46875 9 2C9 2.5625 8.6875 3.03125 8.25 3.3125C7.78125 3.59375 7.1875 3.59375 6.75 3.3125C6.28125 3.03125 6 2.5625 6 2ZM5.25 4.1875L6.21875 4.40625L7.71875 4.78125L8.09375 4.875L8.3125 5.21875L9.53125 7H10.5V6.25V5.5H12V6.25V7V9V15.75V16.5H10.5V15.75V9H9H8.4375L8.15625 8.5625L7.59375 7.71875L7 10.0938L8.6875 11.8125L9 12.0938V12.5V15.5V16.5H7V15.5V12.9375L4.8125 10.75H4.78125V10.7188L4.6875 10.625C4.1875 10.125 3.96875 9.40625 4.15625 8.71875L5.03125 5.15625L5.25 4.1875ZM3.65625 10.9375C3.75 11.0938 3.84375 11.2188 3.96875 11.3125L5.28125 12.625L4.25 16.5H2.1875L3.65625 10.9375ZM4.5 3.5L3 9.5L0 9L1.5 3.5H4.5Z" fill="black"/>
</svg>
