<svg width="20" height="14" viewBox="0 0 20 14" fill="none" xmlns="http://www.w3.org/2000/svg">
<path d="M20 0V14H0V0H20ZM2.5 4V4.75V7.25V9.25V10H4V9.25V8H5C6.09375 8 7 7.125 7 6C7 4.90625 6.09375 4 5 4H3.25H2.5ZM4 6.5V5.5H5C5.25 5.5 5.5 5.75 5.5 6C5.5 6.28125 5.25 6.5 5 6.5H4ZM12.5 6.75V7.25C12.5 8.78125 13.7188 10 15.25 10C16.75 10 18 8.78125 18 7.25V6.75C18 5.25 16.75 4 15.25 4C13.7188 4 12.5 5.25 12.5 6.75ZM15.25 5.5C15.9375 5.5 16.5 6.0625 16.5 6.75V7.25C16.5 7.96875 15.9375 8.5 15.25 8.5C14.5312 8.5 14 7.96875 14 7.25V6.75C14 6.0625 14.5312 5.5 15.25 5.5ZM8.25 4H7.5V4.75V7.25V9.25V10H9V9.25V8H9.5625L10.5938 9.65625L10.8125 10H12.5938L11.875 8.875L11.125 7.65625C11.6562 7.3125 12 6.6875 12 6C12 4.90625 11.0938 4 10 4H8.25ZM10 6.5H9V5.5H10C10.25 5.5 10.5 5.75 10.5 6C10.5 6.28125 10.25 6.5 10 6.5Z" fill="white"/>
</svg>
