<svg width="122" height="32" viewBox="0 0 122 32" fill="none" xmlns="http://www.w3.org/2000/svg">
<mask id="path-1-inside-1_1368_15300" fill="white">
<path fill-rule="evenodd" clip-rule="evenodd" d="M109.733 11.2482L104.594 0L99.4559 11.2482L87.2923 16L99.4559 20.7518L104.594 32L109.733 20.7518L121.896 16L109.733 11.2482ZM16.0426 29.9541H22.9788L16.5958 19.1455C18.3263 18.7483 19.7873 17.8263 20.9788 16.3795C22.1987 14.9327 22.8086 13.0462 22.8086 10.7199C22.8086 8.02489 21.9434 5.82629 20.2129 4.12416C18.5107 2.42202 16.1987 1.57095 13.2767 1.57095H0V29.9541H6.04258V19.8689H10.4681L16.0426 29.9541ZM15.4469 13.5285C14.6525 14.2093 13.6313 14.5497 12.383 14.5497H6.04258V6.89013H12.383C13.6313 6.89013 14.6525 7.24474 15.4469 7.95396C16.2412 8.63482 16.6384 9.55681 16.6384 10.7199C16.6384 11.8831 16.2412 12.8192 15.4469 13.5285ZM30.1524 26.337C32.9609 29.0888 36.507 30.4647 40.7907 30.4647C45.1028 30.4647 48.6489 29.0888 51.4291 26.337C54.2376 23.5852 55.6419 20.0675 55.6419 15.7838C55.6419 11.5001 54.2376 7.98233 51.4291 5.23055C48.6489 2.47876 45.1028 1.10287 40.7907 1.10287C36.507 1.10287 32.9609 2.49295 30.1524 5.2731C27.3722 8.02489 25.9822 11.5284 25.9822 15.7838C25.9822 20.0391 27.3722 23.5569 30.1524 26.337ZM40.7907 25.103C38.2092 25.103 36.1241 24.2235 34.5354 22.4647C32.9751 20.7058 32.195 18.4788 32.195 15.7838C32.195 13.0887 32.9751 10.8618 34.5354 9.10291C36.1241 7.34403 38.2092 6.46459 40.7907 6.46459C43.3723 6.46459 45.4574 7.34403 47.0461 9.10291C48.6347 10.8618 49.4291 13.0887 49.4291 15.7838C49.4291 18.4788 48.6347 20.7058 47.0461 22.4647C45.4574 24.2235 43.3723 25.103 40.7907 25.103ZM62.8184 26.3796C65.7121 29.103 69.3149 30.4647 73.627 30.4647C78.8469 30.4647 82.8043 28.1385 85.4994 23.4859L80.3079 20.9753C79.6838 22.1952 78.7618 23.1881 77.5419 23.954C76.3504 24.72 75.0454 25.103 73.627 25.103C71.0454 25.103 68.9177 24.2235 67.244 22.4647C65.5702 20.7058 64.7333 18.4788 64.7333 15.7838C64.7333 13.0887 65.5702 10.8618 67.244 9.10291C68.9177 7.34403 71.0454 6.46459 73.627 6.46459C75.0454 6.46459 76.3504 6.86176 77.5419 7.65609C78.7618 8.42205 79.6838 9.40078 80.3079 10.5923L85.4994 8.03907C82.8894 3.41494 78.932 1.10287 73.627 1.10287C69.3149 1.10287 65.7121 2.47876 62.8184 5.23055C59.9532 7.95396 58.5205 11.4717 58.5205 15.7838C58.5205 20.0959 59.9532 23.6278 62.8184 26.3796Z"/>
</mask>
<path fill-rule="evenodd" clip-rule="evenodd" d="M109.733 11.2482L104.594 0L99.4559 11.2482L87.2923 16L99.4559 20.7518L104.594 32L109.733 20.7518L121.896 16L109.733 11.2482ZM16.0426 29.9541H22.9788L16.5958 19.1455C18.3263 18.7483 19.7873 17.8263 20.9788 16.3795C22.1987 14.9327 22.8086 13.0462 22.8086 10.7199C22.8086 8.02489 21.9434 5.82629 20.2129 4.12416C18.5107 2.42202 16.1987 1.57095 13.2767 1.57095H0V29.9541H6.04258V19.8689H10.4681L16.0426 29.9541ZM15.4469 13.5285C14.6525 14.2093 13.6313 14.5497 12.383 14.5497H6.04258V6.89013H12.383C13.6313 6.89013 14.6525 7.24474 15.4469 7.95396C16.2412 8.63482 16.6384 9.55681 16.6384 10.7199C16.6384 11.8831 16.2412 12.8192 15.4469 13.5285ZM30.1524 26.337C32.9609 29.0888 36.507 30.4647 40.7907 30.4647C45.1028 30.4647 48.6489 29.0888 51.4291 26.337C54.2376 23.5852 55.6419 20.0675 55.6419 15.7838C55.6419 11.5001 54.2376 7.98233 51.4291 5.23055C48.6489 2.47876 45.1028 1.10287 40.7907 1.10287C36.507 1.10287 32.9609 2.49295 30.1524 5.2731C27.3722 8.02489 25.9822 11.5284 25.9822 15.7838C25.9822 20.0391 27.3722 23.5569 30.1524 26.337ZM40.7907 25.103C38.2092 25.103 36.1241 24.2235 34.5354 22.4647C32.9751 20.7058 32.195 18.4788 32.195 15.7838C32.195 13.0887 32.9751 10.8618 34.5354 9.10291C36.1241 7.34403 38.2092 6.46459 40.7907 6.46459C43.3723 6.46459 45.4574 7.34403 47.0461 9.10291C48.6347 10.8618 49.4291 13.0887 49.4291 15.7838C49.4291 18.4788 48.6347 20.7058 47.0461 22.4647C45.4574 24.2235 43.3723 25.103 40.7907 25.103ZM62.8184 26.3796C65.7121 29.103 69.3149 30.4647 73.627 30.4647C78.8469 30.4647 82.8043 28.1385 85.4994 23.4859L80.3079 20.9753C79.6838 22.1952 78.7618 23.1881 77.5419 23.954C76.3504 24.72 75.0454 25.103 73.627 25.103C71.0454 25.103 68.9177 24.2235 67.244 22.4647C65.5702 20.7058 64.7333 18.4788 64.7333 15.7838C64.7333 13.0887 65.5702 10.8618 67.244 9.10291C68.9177 7.34403 71.0454 6.46459 73.627 6.46459C75.0454 6.46459 76.3504 6.86176 77.5419 7.65609C78.7618 8.42205 79.6838 9.40078 80.3079 10.5923L85.4994 8.03907C82.8894 3.41494 78.932 1.10287 73.627 1.10287C69.3149 1.10287 65.7121 2.47876 62.8184 5.23055C59.9532 7.95396 58.5205 11.4717 58.5205 15.7838C58.5205 20.0959 59.9532 23.6278 62.8184 26.3796Z" fill="white"/>
<path d="M104.594 0L108.155 -1.62672L104.594 -9.42176L101.033 -1.62672L104.594 0ZM109.733 11.2482L106.172 12.875L106.831 14.3176L108.308 14.8948L109.733 11.2482ZM99.4559 11.2482L100.88 14.8948L102.358 14.3176L103.017 12.875L99.4559 11.2482ZM87.2923 16L85.8678 12.3535L76.5333 16L85.8678 19.6465L87.2923 16ZM99.4559 20.7518L103.017 19.125L102.358 17.6824L100.88 17.1052L99.4559 20.7518ZM104.594 32L101.033 33.6267L104.594 41.4218L108.155 33.6267L104.594 32ZM109.733 20.7518L108.308 17.1052L106.831 17.6824L106.172 19.125L109.733 20.7518ZM121.896 16L123.321 19.6465L132.655 16L123.321 12.3535L121.896 16ZM22.9788 29.9541V33.869H29.8374L26.3498 27.9633L22.9788 29.9541ZM16.0426 29.9541L12.6163 31.8479L13.7334 33.869H16.0426V29.9541ZM16.5958 19.1455L15.7201 15.3298L10.503 16.5272L13.2248 21.1362L16.5958 19.1455ZM20.9788 16.3795L17.9858 13.856L17.9712 13.8733L17.9568 13.8908L20.9788 16.3795ZM20.2129 4.12416L17.4446 6.89242L17.456 6.90386L17.4676 6.9152L20.2129 4.12416ZM0 1.57095V-2.34396H-3.91491V1.57095H0ZM0 29.9541H-3.91491V33.869H0V29.9541ZM6.04258 29.9541V33.869H9.95749V29.9541H6.04258ZM6.04258 19.8689V15.954H2.12767V19.8689H6.04258ZM10.4681 19.8689L13.8945 17.975L12.7774 15.954H10.4681V19.8689ZM15.4469 13.5285L17.9947 16.5009L18.0247 16.4751L18.0543 16.4487L15.4469 13.5285ZM6.04258 14.5497H2.12767V18.4646H6.04258V14.5497ZM6.04258 6.89013V2.97522H2.12767V6.89013H6.04258ZM15.4469 7.95396L12.8395 10.8742L12.869 10.9006L12.8991 10.9264L15.4469 7.95396ZM30.1524 26.337L27.3841 29.1053L27.3983 29.1194L27.4125 29.1334L30.1524 26.337ZM51.4291 26.337L48.6892 23.5407L48.6821 23.5476L48.6751 23.5546L51.4291 26.337ZM51.4291 5.23055L48.6751 8.01297L48.6821 8.01996L48.6892 8.02691L51.4291 5.23055ZM30.1524 5.2731L32.9064 8.05552L32.9066 8.05538L30.1524 5.2731ZM34.5354 22.4647L31.6067 25.0627L31.6184 25.0758L31.6301 25.0888L34.5354 22.4647ZM34.5354 9.10291L31.6301 6.4788L31.6184 6.4918L31.6067 6.50491L34.5354 9.10291ZM47.0461 9.10291L49.9514 6.4788L49.9514 6.47879L47.0461 9.10291ZM47.0461 22.4647L49.9514 25.0888L49.9514 25.0888L47.0461 22.4647ZM62.8184 26.3796L60.1066 29.2032L60.1209 29.2169L60.1353 29.2304L62.8184 26.3796ZM85.4994 23.4859L88.887 25.4483L91.0014 21.7981L87.2038 19.9615L85.4994 23.4859ZM80.3079 20.9753L82.0123 17.4509L78.5662 15.7843L76.8226 19.1922L80.3079 20.9753ZM77.5419 23.954L75.4601 20.6385L75.4424 20.6496L75.4249 20.6609L77.5419 23.954ZM67.244 9.10291L70.08 11.8017L70.08 11.8017L67.244 9.10291ZM77.5419 7.65609L75.3703 10.9135L75.4148 10.9432L75.4601 10.9716L77.5419 7.65609ZM80.3079 10.5923L76.8399 12.4088L78.6108 15.7896L82.0356 14.1053L80.3079 10.5923ZM85.4994 8.03907L87.2271 11.5521L90.9455 9.7234L88.9087 6.11478L85.4994 8.03907ZM62.8184 5.23055L65.5156 8.06815L65.5163 8.06747L62.8184 5.23055ZM101.033 1.62672L106.172 12.875L113.294 9.62153L108.155 -1.62672L101.033 1.62672ZM103.017 12.875L108.155 1.62672L101.033 -1.62672L95.895 9.62153L103.017 12.875ZM88.7168 19.6465L100.88 14.8948L98.0314 7.6017L85.8678 12.3535L88.7168 19.6465ZM100.88 17.1052L88.7168 12.3535L85.8678 19.6465L98.0314 24.3983L100.88 17.1052ZM108.155 30.3733L103.017 19.125L95.895 22.3785L101.033 33.6267L108.155 30.3733ZM106.172 19.125L101.033 30.3733L108.155 33.6267L113.294 22.3785L106.172 19.125ZM120.472 12.3535L108.308 17.1052L111.157 24.3983L123.321 19.6465L120.472 12.3535ZM108.308 14.8948L120.472 19.6465L123.321 12.3535L111.157 7.6017L108.308 14.8948ZM22.9788 26.0392H16.0426V33.869H22.9788V26.0392ZM13.2248 21.1362L19.6078 31.9448L26.3498 27.9633L19.9668 17.1548L13.2248 21.1362ZM17.9568 13.8908C17.2819 14.7103 16.5595 15.1372 15.7201 15.3298L17.4716 22.9612C20.0932 22.3595 22.2927 20.9424 24.0009 18.8683L17.9568 13.8908ZM18.8937 10.7199C18.8937 12.3419 18.4827 13.2666 17.9858 13.856L23.9719 18.9031C25.9146 16.5989 26.7235 13.7504 26.7235 10.7199H18.8937ZM17.4676 6.9152C18.3638 7.79674 18.8937 8.94723 18.8937 10.7199H26.7235C26.7235 7.10254 25.5229 3.85584 22.9581 1.33311L17.4676 6.9152ZM13.2767 5.48587C15.3972 5.48587 16.6287 6.07649 17.4446 6.89242L22.9811 1.3559C20.3928 -1.23245 17.0001 -2.34396 13.2767 -2.34396V5.48587ZM0 5.48587H13.2767V-2.34396H0V5.48587ZM3.91491 29.9541V1.57095H-3.91491V29.9541H3.91491ZM6.04258 26.0392H0V33.869H6.04258V26.0392ZM2.12767 19.8689V29.9541H9.95749V19.8689H2.12767ZM10.4681 15.954H6.04258V23.7838H10.4681V15.954ZM19.469 28.0602L13.8945 17.975L7.0418 21.7628L12.6163 31.8479L19.469 28.0602ZM12.383 18.4646C14.3766 18.4646 16.3593 17.9027 17.9947 16.5009L12.8991 10.556C12.8977 10.5573 12.8916 10.5656 12.8472 10.5804C12.7936 10.5983 12.6521 10.6348 12.383 10.6348V18.4646ZM6.04258 18.4646H12.383V10.6348H6.04258V18.4646ZM2.12767 6.89013V14.5497H9.95749V6.89013H2.12767ZM12.383 2.97522H6.04258V10.805H12.383V2.97522ZM18.0543 5.03368C16.4215 3.57588 14.4175 2.97522 12.383 2.97522V10.805C12.6364 10.805 12.7617 10.8407 12.801 10.8544C12.8312 10.8649 12.8337 10.8691 12.8395 10.8742L18.0543 5.03368ZM20.5533 10.7199C20.5533 8.55747 19.7601 6.49474 17.9947 4.98154L12.8991 10.9264C12.8871 10.9161 12.8591 10.8896 12.8262 10.8454C12.793 10.8007 12.7652 10.7519 12.745 10.7049C12.7021 10.6053 12.7235 10.5873 12.7235 10.7199H20.5533ZM18.0543 16.4487C19.7629 14.9232 20.5533 12.8829 20.5533 10.7199H12.7235C12.7235 10.7879 12.7177 10.8196 12.7172 10.822C12.717 10.8232 12.7211 10.8017 12.7365 10.7654C12.7521 10.7286 12.7733 10.6911 12.7973 10.6579C12.8087 10.6421 12.8189 10.6299 12.8269 10.6211C12.8348 10.6123 12.8395 10.6082 12.8395 10.6082L18.0543 16.4487ZM40.7907 26.5498C37.4309 26.5498 34.9002 25.508 32.8923 23.5407L27.4125 29.1334C31.0217 32.6696 35.5832 34.3796 40.7907 34.3796V26.5498ZM48.6751 23.5546C46.7062 25.5033 44.1872 26.5498 40.7907 26.5498V34.3796C46.0185 34.3796 50.5916 32.6743 54.1831 29.1194L48.6751 23.5546ZM51.727 15.7838C51.727 19.1194 50.675 21.595 48.6892 23.5407L54.169 29.1334C57.8002 25.5755 59.5568 21.0156 59.5568 15.7838H51.727ZM48.6892 8.02691C50.675 9.97259 51.727 12.4482 51.727 15.7838H59.5568C59.5568 10.552 57.8002 5.99208 54.169 2.43418L48.6892 8.02691ZM40.7907 5.01778C44.1872 5.01778 46.7062 6.06423 48.6751 8.01297L54.1831 2.44813C50.5916 -1.10671 46.0185 -2.81204 40.7907 -2.81204V5.01778ZM32.9066 8.05538C34.917 6.0653 37.443 5.01778 40.7907 5.01778V-2.81204C35.571 -2.81204 31.0049 -1.07941 27.3982 2.49082L32.9066 8.05538ZM29.8971 15.7838C29.8971 12.4723 30.9382 10.0036 32.9064 8.05552L27.3984 2.49068C23.8063 6.04614 22.0673 10.5845 22.0673 15.7838H29.8971ZM32.9207 23.5688C30.9388 21.5869 29.8971 19.0951 29.8971 15.7838H22.0673C22.0673 20.9831 23.8057 25.5268 27.3841 29.1053L32.9207 23.5688ZM31.6301 25.0888C34.0321 27.7481 37.2124 29.0179 40.7907 29.0179V21.1881C39.2059 21.1881 38.216 20.6989 37.4407 19.8406L31.6301 25.0888ZM28.28 15.7838C28.28 19.287 29.3185 22.4832 31.6067 25.0627L37.464 19.8667C36.6317 18.9284 36.1099 17.6707 36.1099 15.7838H28.28ZM31.6067 6.50491C29.3185 9.08437 28.28 12.2806 28.28 15.7838H36.1099C36.1099 13.8969 36.6317 12.6392 37.464 11.7009L31.6067 6.50491ZM40.7907 2.54968C37.2124 2.54968 34.0321 3.81943 31.6301 6.4788L37.4407 11.727C38.216 10.8686 39.2059 10.3795 40.7907 10.3795V2.54968ZM49.9514 6.47879C47.5493 3.81943 44.369 2.54968 40.7907 2.54968V10.3795C42.3756 10.3795 43.3655 10.8686 44.1408 11.727L49.9514 6.47879ZM53.344 15.7838C53.344 12.2616 52.2794 9.0563 49.9514 6.4788L44.1408 11.727C44.9901 12.6673 45.5142 13.9159 45.5142 15.7838H53.344ZM49.9514 25.0888C52.2794 22.5113 53.344 19.306 53.344 15.7838H45.5142C45.5142 17.6517 44.9901 18.9003 44.1408 19.8406L49.9514 25.0888ZM40.7907 29.0179C44.369 29.0179 47.5493 27.7481 49.9514 25.0888L44.1408 19.8406C43.3655 20.6989 42.3756 21.1881 40.7907 21.1881V29.0179ZM73.627 26.5498C70.2194 26.5498 67.6041 25.5076 65.5016 23.5287L60.1353 29.2304C63.82 32.6984 68.4104 34.3796 73.627 34.3796V26.5498ZM82.1118 21.5236C80.0909 25.0124 77.3992 26.5498 73.627 26.5498V34.3796C80.2945 34.3796 85.5178 31.2645 88.887 25.4483L82.1118 21.5236ZM78.6034 24.4997L83.795 27.0104L87.2038 19.9615L82.0123 17.4509L78.6034 24.4997ZM79.6237 27.2695C81.409 26.1486 82.831 24.6389 83.7931 22.7584L76.8226 19.1922C76.5365 19.7514 76.1145 20.2276 75.4601 20.6385L79.6237 27.2695ZM73.627 29.0179C75.795 29.0179 77.835 28.4197 79.6589 27.2472L75.4249 20.6609C74.8658 21.0203 74.2959 21.1881 73.627 21.1881V29.0179ZM64.408 25.1635C66.8714 27.7521 70.0493 29.0179 73.627 29.0179V21.1881C72.0416 21.1881 70.9641 20.6949 70.08 19.7659L64.408 25.1635ZM60.8184 15.7838C60.8184 19.3634 61.9629 22.5941 64.408 25.1635L70.08 19.7659C69.1775 18.8175 68.6482 17.5943 68.6482 15.7838H60.8184ZM64.408 6.40411C61.9629 8.97345 60.8184 12.2042 60.8184 15.7838H68.6482C68.6482 13.9733 69.1775 12.7501 70.08 11.8017L64.408 6.40411ZM73.627 2.54968C70.0493 2.54968 66.8714 3.81543 64.408 6.40411L70.08 11.8017C70.9641 10.8726 72.0416 10.3795 73.627 10.3795V2.54968ZM79.7135 4.39868C77.8855 3.17999 75.8262 2.54968 73.627 2.54968V10.3795C74.2647 10.3795 74.8153 10.5435 75.3703 10.9135L79.7135 4.39868ZM83.7758 8.77573C82.8076 6.92726 81.387 5.44778 79.6237 4.34059L75.4601 10.9716C76.1365 11.3963 76.5599 11.8743 76.8399 12.4088L83.7758 8.77573ZM83.7717 4.52602L78.5801 7.07923L82.0356 14.1053L87.2271 11.5521L83.7717 4.52602ZM73.627 5.01778C77.5181 5.01778 80.1735 6.56775 82.09 9.96336L88.9087 6.11478C85.6054 0.262118 80.3459 -2.81204 73.627 -2.81204V5.01778ZM65.5163 8.06747C67.6209 6.06603 70.2313 5.01778 73.627 5.01778V-2.81204C68.3985 -2.81204 63.8032 -1.1085 60.1206 2.39363L65.5163 8.06747ZM62.4355 15.7838C62.4355 12.4363 63.5029 9.98115 65.5156 8.06815L60.1213 2.39294C56.4034 5.92678 54.6056 10.5071 54.6056 15.7838H62.4355ZM65.5302 23.556C63.5036 21.6096 62.4355 19.1312 62.4355 15.7838H54.6056C54.6056 21.0605 56.4028 25.646 60.1066 29.2032L65.5302 23.556Z" fill="white" mask="url(#path-1-inside-1_1368_15300)"/>
</svg>
