<svg width="107" height="29" viewBox="0 0 107 29" fill="none" xmlns="http://www.w3.org/2000/svg">
<mask id="path-1-inside-1_1368_14705" fill="white">
<path fill-rule="evenodd" clip-rule="evenodd" d="M96.016 10.642L91.5198 0.799805L87.0237 10.642L76.3806 14.7998L87.0237 18.9576L91.5198 28.7998L96.016 18.9576L106.659 14.7998L96.016 10.642ZM14.0373 27.5096H20.1065L14.5213 18.0522C16.0355 17.7046 17.3139 16.8979 18.3565 15.6319C19.4238 14.366 19.9575 12.7153 19.9575 10.6798C19.9575 8.32161 19.2004 6.39784 17.6863 4.90848C16.1969 3.41911 14.1738 2.67442 11.6171 2.67442H0V27.5096H5.28726V18.6851H9.15962L14.0373 27.5096ZM13.516 13.1372C12.821 13.733 11.9274 14.0309 10.8352 14.0309H5.28726V7.3287H10.8352C11.9274 7.3287 12.821 7.63898 13.516 8.25956C14.2111 8.8553 14.5586 9.66204 14.5586 10.6798C14.5586 11.6975 14.2111 12.5167 13.516 13.1372ZM26.3833 24.3447C28.8408 26.7525 31.9437 27.9565 35.6919 27.9565C39.465 27.9565 42.5678 26.7525 45.0005 24.3447C47.4579 21.9369 48.6866 18.8589 48.6866 15.1107C48.6866 11.3624 47.4579 8.28438 45.0005 5.87657C42.5678 3.46875 39.465 2.26485 35.6919 2.26485C31.9437 2.26485 28.8408 3.48116 26.3833 5.9138C23.9507 8.32161 22.7344 11.3872 22.7344 15.1107C22.7344 18.8341 23.9507 21.9121 26.3833 24.3447ZM35.6919 23.2649C33.433 23.2649 31.6085 22.4954 30.2185 20.9564C28.8532 19.4174 28.1706 17.4688 28.1706 15.1107C28.1706 12.7525 28.8532 10.8039 30.2185 9.26488C31.6085 7.72586 33.433 6.95636 35.6919 6.95636C37.9508 6.95636 39.7753 7.72586 41.1653 9.26488C42.5554 10.8039 43.2504 12.7525 43.2504 15.1107C43.2504 17.4688 42.5554 19.4174 41.1653 20.9564C39.7753 22.4954 37.9508 23.2649 35.6919 23.2649ZM54.9661 24.382C57.4981 26.765 60.6506 27.9565 64.4236 27.9565C68.991 27.9565 72.4538 25.921 74.812 21.85L70.2694 19.6532C69.7233 20.7206 68.9166 21.5894 67.8492 22.2596C66.8066 22.9298 65.6648 23.2649 64.4236 23.2649C62.1647 23.2649 60.303 22.4954 58.8385 20.9564C57.3739 19.4174 56.6417 17.4688 56.6417 15.1107C56.6417 12.7525 57.3739 10.8039 58.8385 9.26488C60.303 7.72586 62.1647 6.95636 64.4236 6.95636C65.6648 6.95636 66.8066 7.30388 67.8492 7.99892C68.9166 8.66913 69.7233 9.52552 70.2694 10.5681L74.812 8.33402C72.5283 4.28791 69.0655 2.26485 64.4236 2.26485C60.6506 2.26485 57.4981 3.46875 54.9661 5.87657C52.459 8.25956 51.2055 11.3376 51.2055 15.1107C51.2055 18.8837 52.459 21.9742 54.9661 24.382Z"/>
</mask>
<path fill-rule="evenodd" clip-rule="evenodd" d="M96.016 10.642L91.5198 0.799805L87.0237 10.642L76.3806 14.7998L87.0237 18.9576L91.5198 28.7998L96.016 18.9576L106.659 14.7998L96.016 10.642ZM14.0373 27.5096H20.1065L14.5213 18.0522C16.0355 17.7046 17.3139 16.8979 18.3565 15.6319C19.4238 14.366 19.9575 12.7153 19.9575 10.6798C19.9575 8.32161 19.2004 6.39784 17.6863 4.90848C16.1969 3.41911 14.1738 2.67442 11.6171 2.67442H0V27.5096H5.28726V18.6851H9.15962L14.0373 27.5096ZM13.516 13.1372C12.821 13.733 11.9274 14.0309 10.8352 14.0309H5.28726V7.3287H10.8352C11.9274 7.3287 12.821 7.63898 13.516 8.25956C14.2111 8.8553 14.5586 9.66204 14.5586 10.6798C14.5586 11.6975 14.2111 12.5167 13.516 13.1372ZM26.3833 24.3447C28.8408 26.7525 31.9437 27.9565 35.6919 27.9565C39.465 27.9565 42.5678 26.7525 45.0005 24.3447C47.4579 21.9369 48.6866 18.8589 48.6866 15.1107C48.6866 11.3624 47.4579 8.28438 45.0005 5.87657C42.5678 3.46875 39.465 2.26485 35.6919 2.26485C31.9437 2.26485 28.8408 3.48116 26.3833 5.9138C23.9507 8.32161 22.7344 11.3872 22.7344 15.1107C22.7344 18.8341 23.9507 21.9121 26.3833 24.3447ZM35.6919 23.2649C33.433 23.2649 31.6085 22.4954 30.2185 20.9564C28.8532 19.4174 28.1706 17.4688 28.1706 15.1107C28.1706 12.7525 28.8532 10.8039 30.2185 9.26488C31.6085 7.72586 33.433 6.95636 35.6919 6.95636C37.9508 6.95636 39.7753 7.72586 41.1653 9.26488C42.5554 10.8039 43.2504 12.7525 43.2504 15.1107C43.2504 17.4688 42.5554 19.4174 41.1653 20.9564C39.7753 22.4954 37.9508 23.2649 35.6919 23.2649ZM54.9661 24.382C57.4981 26.765 60.6506 27.9565 64.4236 27.9565C68.991 27.9565 72.4538 25.921 74.812 21.85L70.2694 19.6532C69.7233 20.7206 68.9166 21.5894 67.8492 22.2596C66.8066 22.9298 65.6648 23.2649 64.4236 23.2649C62.1647 23.2649 60.303 22.4954 58.8385 20.9564C57.3739 19.4174 56.6417 17.4688 56.6417 15.1107C56.6417 12.7525 57.3739 10.8039 58.8385 9.26488C60.303 7.72586 62.1647 6.95636 64.4236 6.95636C65.6648 6.95636 66.8066 7.30388 67.8492 7.99892C68.9166 8.66913 69.7233 9.52552 70.2694 10.5681L74.812 8.33402C72.5283 4.28791 69.0655 2.26485 64.4236 2.26485C60.6506 2.26485 57.4981 3.46875 54.9661 5.87657C52.459 8.25956 51.2055 11.3376 51.2055 15.1107C51.2055 18.8837 52.459 21.9742 54.9661 24.382Z" fill="black"/>
<path d="M91.5198 0.799805L94.6357 -0.623573L91.5198 -7.44423L88.404 -0.623573L91.5198 0.799805ZM96.016 10.642L92.9002 12.0654L93.4768 13.3277L94.7695 13.8327L96.016 10.642ZM87.0237 10.642L88.2702 13.8327L89.5629 13.3277L90.1395 12.0654L87.0237 10.642ZM76.3806 14.7998L75.1341 11.6091L66.9664 14.7998L75.1341 17.9905L76.3806 14.7998ZM87.0237 18.9576L90.1395 17.5342L89.5629 16.2719L88.2702 15.7669L87.0237 18.9576ZM91.5198 28.7998L88.404 30.2232L91.5198 37.0438L94.6357 30.2232L91.5198 28.7998ZM96.016 18.9576L94.7695 15.7669L93.4768 16.2719L92.9002 17.5342L96.016 18.9576ZM106.659 14.7998L107.906 17.9905L116.073 14.7998L107.906 11.6091L106.659 14.7998ZM20.1065 27.5096V30.9352H26.1077L23.0561 25.7677L20.1065 27.5096ZM14.0373 27.5096L11.0393 29.1668L12.0167 30.9352H14.0373V27.5096ZM14.5213 18.0522L13.7551 14.7134L9.19009 15.7611L11.5717 19.794L14.5213 18.0522ZM18.3565 15.6319L15.7376 13.4238L15.7248 13.439L15.7122 13.4543L18.3565 15.6319ZM17.6863 4.90848L15.264 7.3307L15.274 7.34071L15.2841 7.35064L17.6863 4.90848ZM0 2.67442V-0.751125H-3.42555V2.67442H0ZM0 27.5096H-3.42555V30.9352H0V27.5096ZM5.28726 27.5096V30.9352H8.71281V27.5096H5.28726ZM5.28726 18.6851V15.2596H1.86171V18.6851H5.28726ZM9.15962 18.6851L12.1577 17.028L11.1802 15.2596H9.15962V18.6851ZM13.516 13.1372L15.7453 15.7381L15.7716 15.7156L15.7975 15.6925L13.516 13.1372ZM5.28726 14.0309H1.86171V17.4564H5.28726V14.0309ZM5.28726 7.3287V3.90315H1.86171V7.3287H5.28726ZM13.516 8.25956L11.2345 10.8148L11.2604 10.8379L11.2867 10.8604L13.516 8.25956ZM26.3833 24.3447L23.9611 26.767L23.9735 26.7793L23.986 26.7916L26.3833 24.3447ZM45.0005 24.3447L42.6031 21.8979L42.5969 21.904L42.5907 21.9101L45.0005 24.3447ZM45.0005 5.87657L42.5907 8.31118L42.5969 8.3173L42.6031 8.32338L45.0005 5.87657ZM26.3833 5.9138L28.7931 8.34842L28.7932 8.34829L26.3833 5.9138ZM30.2185 20.9564L27.6559 23.2297L27.6661 23.2411L27.6764 23.2525L30.2185 20.9564ZM30.2185 9.26488L27.6764 6.96878L27.6661 6.98016L27.6559 6.99163L30.2185 9.26488ZM41.1653 9.26488L38.6232 11.561L38.6232 11.561L41.1653 9.26488ZM41.1653 20.9564L38.6232 18.6603L38.6232 18.6603L41.1653 20.9564ZM54.9661 24.382L52.5933 26.8526L52.6058 26.8646L52.6184 26.8765L54.9661 24.382ZM74.812 21.85L77.7761 23.5671L79.6262 20.3732L76.3033 18.7662L74.812 21.85ZM70.2694 19.6532L71.7608 16.5694L68.7454 15.1111L67.2198 18.093L70.2694 19.6532ZM67.8492 22.2596L66.0276 19.3586L66.0121 19.3683L65.9968 19.3781L67.8492 22.2596ZM58.8385 20.9564L56.357 23.3179L56.357 23.3179L58.8385 20.9564ZM58.8385 9.26488L61.32 11.6263L61.32 11.6263L58.8385 9.26488ZM67.8492 7.99892L65.949 10.8491L65.988 10.8751L66.0276 10.9L67.8492 7.99892ZM70.2694 10.5681L67.2349 12.1576L68.7845 15.1158L71.7812 13.642L70.2694 10.5681ZM74.812 8.33402L76.3237 11.4079L79.5773 9.80781L77.7951 6.65027L74.812 8.33402ZM54.9661 5.87657L57.3261 8.35947L57.3268 8.35887L54.9661 5.87657ZM88.404 2.22318L92.9002 12.0654L99.1318 9.21864L94.6357 -0.623573L88.404 2.22318ZM90.1395 12.0654L94.6357 2.22318L88.404 -0.623573L83.9079 9.21864L90.1395 12.0654ZM77.627 17.9905L88.2702 13.8327L85.7772 7.4513L75.1341 11.6091L77.627 17.9905ZM88.2702 15.7669L77.627 11.6091L75.1341 17.9905L85.7772 22.1483L88.2702 15.7669ZM94.6357 27.3764L90.1395 17.5342L83.9079 20.381L88.404 30.2232L94.6357 27.3764ZM92.9002 17.5342L88.404 27.3764L94.6357 30.2232L99.1318 20.381L92.9002 17.5342ZM105.413 11.6091L94.7695 15.7669L97.2625 22.1483L107.906 17.9905L105.413 11.6091ZM94.7695 13.8327L105.413 17.9905L107.906 11.6091L97.2625 7.4513L94.7695 13.8327ZM20.1065 24.0841H14.0373V30.9352H20.1065V24.0841ZM11.5717 19.794L17.1569 29.2515L23.0561 25.7677L17.471 16.3103L11.5717 19.794ZM15.7122 13.4543C15.1217 14.1713 14.4895 14.5448 13.7551 14.7134L15.2876 21.3909C17.5815 20.8644 19.5061 19.6245 21.0008 17.8096L15.7122 13.4543ZM16.532 10.6798C16.532 12.099 16.1724 12.9081 15.7376 13.4238L20.9754 17.84C22.6753 15.8238 23.3831 13.3315 23.3831 10.6798H16.532ZM15.2841 7.35064C16.0683 8.12199 16.532 9.12866 16.532 10.6798H23.3831C23.3831 7.51456 22.3326 4.6737 20.0884 2.46631L15.2841 7.35064ZM11.6171 6.09997C13.4725 6.09997 14.5501 6.61677 15.264 7.3307L20.1085 2.48625C17.8437 0.221445 14.8751 -0.751125 11.6171 -0.751125V6.09997ZM0 6.09997H11.6171V-0.751125H0V6.09997ZM3.42555 27.5096V2.67442H-3.42555V27.5096H3.42555ZM5.28726 24.0841H0V30.9352H5.28726V24.0841ZM1.86171 18.6851V27.5096H8.71281V18.6851H1.86171ZM9.15962 15.2596H5.28726V22.1107H9.15962V15.2596ZM17.0353 25.8525L12.1577 17.028L6.16158 20.3423L11.0393 29.1668L17.0353 25.8525ZM10.8352 17.4564C12.5795 17.4564 14.3144 16.9647 15.7453 15.7381L11.2867 10.5364C11.2855 10.5374 11.2801 10.5447 11.2413 10.5577C11.1944 10.5733 11.0706 10.6053 10.8352 10.6053V17.4564ZM5.28726 17.4564H10.8352V10.6053H5.28726V17.4564ZM1.86171 7.3287V14.0309H8.71281V7.3287H1.86171ZM10.8352 3.90315H5.28726V10.7542H10.8352V3.90315ZM15.7975 5.70431C14.3688 4.42873 12.6153 3.90315 10.8352 3.90315V10.7542C11.0568 10.7542 11.1665 10.7855 11.2009 10.7974C11.2273 10.8066 11.2295 10.8103 11.2345 10.8148L15.7975 5.70431ZM17.9841 10.6798C17.9841 8.78762 17.2901 6.98274 15.7453 5.65869L11.2867 10.8604C11.2762 10.8514 11.2517 10.8283 11.223 10.7896C11.1939 10.7504 11.1696 10.7077 11.1519 10.6667C11.1143 10.5795 11.133 10.5637 11.133 10.6798H17.9841ZM15.7975 15.6925C17.2925 14.3577 17.9841 12.5724 17.9841 10.6798H11.133C11.133 10.7392 11.128 10.767 11.1276 10.7691C11.1274 10.7702 11.131 10.7513 11.1444 10.7196C11.1581 10.6874 11.1766 10.6545 11.1976 10.6255C11.2076 10.6117 11.2166 10.601 11.2235 10.5933C11.2305 10.5856 11.2346 10.582 11.2346 10.582L15.7975 15.6925ZM35.6919 24.5309C32.752 24.5309 30.5376 23.6193 28.7807 21.8979L23.986 26.7916C27.144 29.8858 31.1353 31.382 35.6919 31.382V24.5309ZM42.5907 21.9101C40.868 23.6153 38.6638 24.5309 35.6919 24.5309V31.382C40.2661 31.382 44.2677 29.8898 47.4102 26.7794L42.5907 21.9101ZM45.2611 15.1107C45.2611 18.0293 44.3406 20.1954 42.6031 21.8979L47.3978 26.7916C50.5752 23.6784 52.1122 19.6885 52.1122 15.1107H45.2611ZM42.6031 8.32338C44.3406 10.0259 45.2611 12.192 45.2611 15.1107H52.1122C52.1122 10.5328 50.5752 6.54291 47.3978 3.42975L42.6031 8.32338ZM35.6919 5.69039C38.6638 5.69039 40.868 6.60604 42.5907 8.31118L47.4102 3.44195C44.2677 0.331465 40.2661 -1.1607 35.6919 -1.1607V5.69039ZM28.7932 8.34829C30.5523 6.60697 32.7627 5.69039 35.6919 5.69039V-1.1607C31.1246 -1.1607 27.1293 0.355357 23.9734 3.47931L28.7932 8.34829ZM26.1599 15.1107C26.1599 12.2131 27.071 10.053 28.7931 8.34842L23.9736 3.47918C20.8305 6.59021 19.3088 10.5613 19.3088 15.1107H26.1599ZM28.8056 21.9225C27.0715 20.1884 26.1599 18.0081 26.1599 15.1107H19.3088C19.3088 19.6601 20.83 23.6358 23.9611 26.767L28.8056 21.9225ZM27.6764 23.2525C29.7781 25.5795 32.5609 26.6905 35.6919 26.6905V19.8394C34.3052 19.8394 33.439 19.4114 32.7606 18.6603L27.6764 23.2525ZM24.745 15.1107C24.745 18.176 25.6537 20.9726 27.6559 23.2297L32.781 18.6832C32.0527 17.8622 31.5961 16.7617 31.5961 15.1107H24.745ZM27.6559 6.99163C25.6537 9.24866 24.745 12.0453 24.745 15.1107H31.5961C31.5961 13.4596 32.0527 12.3591 32.781 11.5381L27.6559 6.99163ZM35.6919 3.53081C32.5609 3.53081 29.7781 4.64184 27.6764 6.96878L32.7606 11.561C33.439 10.8099 34.3052 10.3819 35.6919 10.3819V3.53081ZM43.7074 6.96879C41.6057 4.64184 38.8229 3.53081 35.6919 3.53081V10.3819C37.0786 10.3819 37.9448 10.8099 38.6232 11.561L43.7074 6.96879ZM46.676 15.1107C46.676 12.0288 45.7445 9.2241 43.7074 6.96878L38.6232 11.561C39.3663 12.3837 39.8249 13.4762 39.8249 15.1107H46.676ZM43.7074 23.2525C45.7445 20.9972 46.676 18.1925 46.676 15.1107H39.8249C39.8249 16.7451 39.3663 17.8376 38.6232 18.6603L43.7074 23.2525ZM35.6919 26.6905C38.8229 26.6905 41.6057 25.5795 43.7074 23.2525L38.6232 18.6603C37.9448 19.4114 37.0786 19.8394 35.6919 19.8394V26.6905ZM64.4236 24.5309C61.442 24.5309 59.1536 23.619 57.3139 21.8875L52.6184 26.8765C55.8425 29.9109 59.8591 31.382 64.4236 31.382V24.5309ZM71.8478 20.133C70.0795 23.1857 67.7243 24.5309 64.4236 24.5309V31.382C70.2577 31.382 74.8281 28.6563 77.7761 23.5671L71.8478 20.133ZM68.778 22.7371L73.3206 24.9339L76.3033 18.7662L71.7608 16.5694L68.778 22.7371ZM69.6708 25.1607C71.2329 24.1798 72.4772 22.8589 73.319 21.2135L67.2198 18.093C66.9694 18.5824 66.6002 18.999 66.0276 19.3586L69.6708 25.1607ZM64.4236 26.6905C66.3206 26.6905 68.1056 26.1671 69.7016 25.1411L65.9968 19.3781C65.5076 19.6926 65.0089 19.8394 64.4236 19.8394V26.6905ZM56.357 23.3179C58.5125 25.583 61.2931 26.6905 64.4236 26.6905V19.8394C63.0364 19.8394 62.0936 19.4079 61.32 18.595L56.357 23.3179ZM53.2161 15.1107C53.2161 18.2428 54.2176 21.0697 56.357 23.3179L61.32 18.595C60.5303 17.7651 60.0672 16.6949 60.0672 15.1107H53.2161ZM56.357 6.90343C54.2176 9.1516 53.2161 11.9785 53.2161 15.1107H60.0672C60.0672 13.5264 60.5303 12.4562 61.32 11.6263L56.357 6.90343ZM64.4236 3.53081C61.2931 3.53081 58.5125 4.63834 56.357 6.90343L61.32 11.6263C62.0936 10.8134 63.0364 10.3819 64.4236 10.3819V3.53081ZM69.7493 5.14868C68.1498 4.08233 66.3479 3.53081 64.4236 3.53081V10.3819C64.9816 10.3819 65.4634 10.5254 65.949 10.8491L69.7493 5.14868ZM73.3038 8.97859C72.4566 7.36119 71.2137 6.06665 69.6708 5.09786L66.0276 10.9C66.6194 11.2716 66.9899 11.6898 67.2349 12.1576L73.3038 8.97859ZM73.3002 5.26011L68.7576 7.49416L71.7812 13.642L76.3237 11.4079L73.3002 5.26011ZM64.4236 5.69039C67.8283 5.69039 70.1518 7.04662 71.8288 10.0178L77.7951 6.65027C74.9047 1.52919 70.3027 -1.1607 64.4236 -1.1607V5.69039ZM57.3268 8.35887C59.1683 6.60761 61.4524 5.69039 64.4236 5.69039V-1.1607C59.8487 -1.1607 55.8278 0.329897 52.6055 3.39426L57.3268 8.35887ZM54.631 15.1107C54.631 12.1816 55.5651 10.0333 57.3261 8.35947L52.6061 3.39366C49.353 6.48577 47.7799 10.4936 47.7799 15.1107H54.631ZM57.3389 21.9113C55.5656 20.2082 54.631 18.0396 54.631 15.1107H47.7799C47.7799 19.7278 49.3524 23.7401 52.5933 26.8526L57.3389 21.9113Z" fill="black" mask="url(#path-1-inside-1_1368_14705)"/>
</svg>
