<svg width="18" height="17" viewBox="0 0 18 17" fill="none" xmlns="http://www.w3.org/2000/svg">
<path d="M7 0.600098H11H12V1.6001H13.5H15V2.6001L14.625 3.1001L14.25 3.6001H3.75L3.375 3.1001L3 2.6001V1.6001H4.5H6V0.600098H7ZM2 4.6001H16V10.1001L14.0938 12.7563C13.8125 12.9751 13.5625 13.1313 13.25 13.2563C12.8438 13.4438 12.4062 13.5688 12 13.5688C11.5938 13.5688 11.125 13.4438 10.7188 13.2563C10.3438 13.1001 10.0312 12.8813 9.59375 12.5688L9 12.1001L8.40625 12.5376L8.375 12.5688C7.9375 12.8813 7.625 13.1001 7.25 13.2563C6.84375 13.4438 6.40625 13.5688 6 13.5688C5.59375 13.5688 5.125 13.4438 4.71875 13.2563C4.40625 13.1313 4.15625 12.9751 3.875 12.7563L2 10.1001V4.6001ZM4 6.6001V9.6001H14V6.6001H4ZM8.5 16.0376C7.875 16.3188 6.96875 16.6001 6 16.6001C5 16.6001 4.09375 16.3188 3.46875 16.0376C3.28125 15.9438 3.125 15.8501 3 15.7876C2.84375 15.8501 2.6875 15.9438 2.5 16.0376C1.875 16.3188 0.96875 16.6001 0 16.6001V14.6001C0.59375 14.6001 1.1875 14.4126 1.6875 14.1938C2.125 14.0063 2.5 13.7251 2.9375 13.4438C2.9375 13.4126 2.96875 13.4126 3 13.3813C3 13.4126 3.03125 13.4126 3.0625 13.4438C3.46875 13.7251 3.84375 14.0063 4.3125 14.1938C4.78125 14.4126 5.375 14.6001 6 14.6001C6.59375 14.6001 7.1875 14.4126 7.6875 14.1938C8.15625 14.0063 8.53125 13.7251 8.9375 13.4438C8.9375 13.4126 8.96875 13.4126 9 13.3813C9.03125 13.4126 9.03125 13.4126 9.0625 13.4438C9.46875 13.7251 9.84375 14.0063 10.3125 14.1938C10.7812 14.4126 11.4062 14.6001 12 14.6001C12.5938 14.6001 13.2188 14.4126 13.6875 14.1938C14.1562 14.0063 14.5312 13.7251 14.9375 13.4438C14.9688 13.4126 14.9688 13.4126 15 13.3813C15.0312 13.4126 15.0312 13.4126 15.0625 13.4438C15.4688 13.7251 15.8438 14.0063 16.3125 14.1938C16.8125 14.4126 17.4062 14.6001 18 14.6001V16.6001C17 16.6001 16.125 16.3188 15.5 16.0376C15.3125 15.9438 15.1562 15.8501 15 15.7876C14.875 15.8501 14.6875 15.9438 14.5312 16.0376C13.9062 16.3188 13 16.6001 12 16.6001C11 16.6001 10.125 16.3188 9.5 16.0376C9.3125 15.9438 9.15625 15.8501 9 15.7876C8.875 15.8501 8.6875 15.9438 8.53125 16.0376H8.5Z" fill="black"/>
</svg>
