<svg width="25" height="25" viewBox="0 0 25 25" fill="none" xmlns="http://www.w3.org/2000/svg">
<path d="M19.5 10.55C19.5 12.7063 18.7969 14.7219 17.625 16.3157L23.5312 22.2688C24.1406 22.8313 24.1406 23.8157 23.5312 24.3782C22.9688 24.9875 21.9844 24.9875 21.4219 24.3782L15.4688 18.425C13.875 19.6438 11.8594 20.3 9.75 20.3C4.35938 20.3 0 15.9407 0 10.55C0 5.2063 4.35938 0.800049 9.75 0.800049C15.0938 0.800049 19.5 5.2063 19.5 10.55ZM9.75 17.3C12.1406 17.3 14.3438 16.0344 15.5625 13.925C16.7812 11.8625 16.7812 9.28442 15.5625 7.17505C14.3438 5.11255 12.1406 3.80005 9.75 3.80005C7.3125 3.80005 5.10938 5.11255 3.89062 7.17505C2.67188 9.28442 2.67188 11.8625 3.89062 13.925C5.10938 16.0344 7.3125 17.3 9.75 17.3Z" fill="black"/>
</svg>
