<svg width="24" height="21" viewBox="0 0 24 21" fill="none" xmlns="http://www.w3.org/2000/svg">
<path d="M21.8672 4.60425C23.0391 6.44019 22.0234 8.97925 19.8359 9.29175C19.6797 9.29175 19.5234 9.29175 19.3672 9.29175C18.3516 9.29175 17.4531 8.86206 16.8281 8.15894C16.2031 8.86206 15.3047 9.29175 14.2891 9.29175C13.2734 9.29175 12.3359 8.86206 11.7109 8.15894C11.125 8.86206 10.1875 9.29175 9.17188 9.29175C8.15625 9.29175 7.25781 8.86206 6.63281 8.15894C6.00781 8.86206 5.10938 9.29175 4.09375 9.29175C3.9375 9.29175 3.78125 9.29175 3.625 9.29175C1.4375 8.97925 0.421875 6.44019 1.59375 4.60425L4.25 0.541748H19.25L21.8672 4.60425ZM19.9922 10.5027C20.1875 10.5027 20.3438 10.4636 20.5 10.4246V15.5417V20.5417H3V15.5417V10.4246C3.11719 10.4636 3.27344 10.5027 3.46875 10.5027C3.66406 10.5417 3.85938 10.5417 4.09375 10.5417C4.5625 10.5417 5.03125 10.5027 5.5 10.3464V15.5417H18V10.3464C18.4297 10.5027 18.8984 10.5417 19.3672 10.5417C19.5625 10.5417 19.7969 10.5417 19.9922 10.5027Z" fill="black"/>
</svg>
