<svg width="20" height="15" viewBox="0 0 20 15" fill="none" xmlns="http://www.w3.org/2000/svg">
<path d="M2.15625 0.725098L3.65625 1.7251L4.28125 2.1626L3.4375 3.4126L2.8125 2.9751L1.3125 1.9751L0.6875 1.56885L1.53125 0.318848L2.15625 0.725098ZM18.6562 1.9751L17.1562 2.9751L16.5312 3.4126L15.6875 2.1626L16.3125 1.7251L17.8125 0.725098L18.4375 0.318848L19.2812 1.56885L18.6562 1.9751ZM0.75 5.6001H3H3.75V7.1001H3H0.75H0V5.6001H0.75ZM17 5.6001H19.25H20V7.1001H19.25H17H16.25V5.6001H17ZM10 0.600098C12.75 0.600098 15 2.8501 15 5.6001V10.6001H5V5.6001C5 2.8501 7.21875 0.600098 10 0.600098ZM7.5 5.6001C7.5 4.2251 8.59375 3.1001 10 3.1001V2.1001C8.0625 2.1001 6.5 3.69385 6.5 5.6001H7.5ZM17 11.6001V14.6001H3V11.6001H17Z" fill="black"/>
</svg>
