<svg width="23" height="21" viewBox="0 0 23 21" fill="none" xmlns="http://www.w3.org/2000/svg">
<path d="M21.6172 4.5625C22.7891 6.39844 21.7734 8.9375 19.5859 9.25C19.4297 9.25 19.2734 9.25 19.1172 9.25C18.1016 9.25 17.2031 8.82031 16.5781 8.11719C15.9531 8.82031 15.0547 9.25 14.0391 9.25C13.0234 9.25 12.0859 8.82031 11.4609 8.11719C10.875 8.82031 9.9375 9.25 8.92188 9.25C7.90625 9.25 7.00781 8.82031 6.38281 8.11719C5.75781 8.82031 4.85938 9.25 3.84375 9.25C3.6875 9.25 3.53125 9.25 3.375 9.25C1.1875 8.9375 0.171875 6.39844 1.34375 4.5625L4 0.5H19L21.6172 4.5625ZM19.7422 10.4609C19.9375 10.4609 20.0938 10.4219 20.25 10.3828V15.5V20.5H2.75V15.5V10.3828C2.86719 10.4219 3.02344 10.4609 3.21875 10.4609C3.41406 10.5 3.60938 10.5 3.84375 10.5C4.3125 10.5 4.78125 10.4609 5.25 10.3047V15.5H17.75V10.3047C18.1797 10.4609 18.6484 10.5 19.1172 10.5C19.3125 10.5 19.5469 10.5 19.7422 10.4609Z" fill="white"/>
</svg>
