<svg width="15" height="12" viewBox="0 0 15 12" fill="none" xmlns="http://www.w3.org/2000/svg">
<path d="M13.8203 2.4375C14.5234 3.53906 13.9141 5.0625 12.6016 5.25C12.5078 5.25 12.4141 5.25 12.3203 5.25C11.7109 5.25 11.1719 4.99219 10.7969 4.57031C10.4219 4.99219 9.88281 5.25 9.27344 5.25C8.66406 5.25 8.10156 4.99219 7.72656 4.57031C7.375 4.99219 6.8125 5.25 6.20312 5.25C5.59375 5.25 5.05469 4.99219 4.67969 4.57031C4.30469 4.99219 3.76562 5.25 3.15625 5.25C3.0625 5.25 2.96875 5.25 2.875 5.25C1.5625 5.0625 0.953125 3.53906 1.65625 2.4375L3.25 0H12.25L13.8203 2.4375ZM12.6953 5.97656C12.8125 5.97656 12.9062 5.95312 13 5.92969V9V12H2.5V9V5.92969C2.57031 5.95312 2.66406 5.97656 2.78125 5.97656C2.89844 6 3.01562 6 3.15625 6C3.4375 6 3.71875 5.97656 4 5.88281V9H11.5V5.88281C11.7578 5.97656 12.0391 6 12.3203 6C12.4375 6 12.5781 6 12.6953 5.97656Z" fill="black"/>
</svg>
