<svg width="16" height="17" viewBox="0 0 16 17" fill="none" xmlns="http://www.w3.org/2000/svg">
<path d="M8 2.9126L11.3125 0.600098L12.0312 4.56885L16 5.2876L13.6875 8.6001L16 11.9126L12.0312 12.6626L11.3125 16.6001L8 14.3188L4.6875 16.6001L3.9375 12.6626L0 11.9126L2.28125 8.6001L0 5.2876L3.9375 4.56885L4.6875 0.600098L8 2.9126ZM11 8.6001C11 9.69385 10.4062 10.6626 9.5 11.2251C8.5625 11.7563 7.40625 11.7563 6.5 11.2251C5.5625 10.6626 5 9.69385 5 8.6001C5 7.5376 5.5625 6.56885 6.5 6.00635C7.40625 5.4751 8.5625 5.4751 9.5 6.00635C10.4062 6.56885 11 7.5376 11 8.6001ZM4 8.6001C4 10.0376 4.75 11.3501 6 12.0688C7.21875 12.7876 8.75 12.7876 10 12.0688C11.2188 11.3501 12 10.0376 12 8.6001C12 7.19385 11.2188 5.88135 10 5.1626C8.75 4.44385 7.21875 4.44385 6 5.1626C4.75 5.88135 4 7.19385 4 8.6001Z" fill="black"/>
</svg>
