<svg width="14" height="14" viewBox="0 0 14 14" fill="none" xmlns="http://www.w3.org/2000/svg">
<path d="M0.75 0.25H8.25C8.65625 0.25 9 0.59375 9 1C9 1.4375 8.65625 1.75 8.25 1.75H0.75C0.3125 1.75 0 1.4375 0 1C0 0.59375 0.3125 0.25 0.75 0.25ZM0.75 4.25H13.25C13.6562 4.25 14 4.59375 14 5C14 5.4375 13.6562 5.75 13.25 5.75H0.75C0.3125 5.75 0 5.4375 0 5C0 4.59375 0.3125 4.25 0.75 4.25ZM0 9C0 8.59375 0.3125 8.25 0.75 8.25H8.25C8.65625 8.25 9 8.59375 9 9C9 9.4375 8.65625 9.75 8.25 9.75H0.75C0.3125 9.75 0 9.4375 0 9ZM0.75 12.25H13.25C13.6562 12.25 14 12.5938 14 13C14 13.4375 13.6562 13.75 13.25 13.75H0.75C0.3125 13.75 0 13.4375 0 13C0 12.5938 0.3125 12.25 0.75 12.25Z" fill="black"/>
</svg>
