<svg width="18" height="13" viewBox="0 0 18 13" fill="none" xmlns="http://www.w3.org/2000/svg">
<path d="M9 2.7876C8.84375 2.8501 8.6875 2.94385 8.5 3.0376C7.875 3.31885 6.96875 3.6001 6 3.6001C5 3.6001 4.09375 3.31885 3.46875 3.0376C3.28125 2.94385 3.125 2.8501 3 2.7876C2.84375 2.8501 2.6875 2.94385 2.5 3.0376C1.875 3.31885 0.96875 3.6001 0 3.6001V1.6001C0.59375 1.6001 1.1875 1.4126 1.6875 1.19385C2.125 1.00635 2.5 0.725098 2.9375 0.443848L3 0.381348L3.0625 0.443848C3.46875 0.725098 3.84375 1.00635 4.3125 1.19385C4.78125 1.4126 5.375 1.6001 6 1.6001C6.59375 1.6001 7.1875 1.4126 7.6875 1.19385C8.15625 1.00635 8.53125 0.725098 8.9375 0.443848L9 0.381348L9.0625 0.443848C9.46875 0.725098 9.84375 1.00635 10.3125 1.19385C10.7812 1.4126 11.4062 1.6001 12 1.6001C12.5938 1.6001 13.1875 1.4126 13.6875 1.19385C14.1562 1.00635 14.5312 0.725098 14.9375 0.443848L15 0.381348L15.0625 0.443848C15.4688 0.725098 15.8438 1.00635 16.3125 1.19385C16.7812 1.4126 17.4062 1.6001 18 1.6001V3.6001C17 3.6001 16.0938 3.31885 15.5 3.0376C15.3125 2.94385 15.1562 2.8501 15 2.7876C14.875 2.8501 14.6875 2.94385 14.5 3.0376C13.9062 3.31885 13 3.6001 12 3.6001C11 3.6001 10.0938 3.31885 9.5 3.0376C9.3125 2.94385 9.15625 2.8501 9 2.7876ZM9 11.7876C8.84375 11.8501 8.6875 11.9438 8.5 12.0376C7.875 12.3188 6.96875 12.6001 6 12.6001C5 12.6001 4.09375 12.3188 3.46875 12.0376C3.28125 11.9438 3.125 11.8501 3 11.7876C2.84375 11.8501 2.6875 11.9438 2.5 12.0376C1.875 12.3188 0.96875 12.6001 0 12.6001V10.6001C0.59375 10.6001 1.1875 10.4126 1.6875 10.1938C2.125 10.0063 2.5 9.7251 2.9375 9.44385L3 9.38135L3.0625 9.44385C3.46875 9.7251 3.84375 10.0063 4.3125 10.1938C4.78125 10.4126 5.375 10.6001 6 10.6001C6.59375 10.6001 7.1875 10.4126 7.6875 10.1938C8.15625 10.0063 8.53125 9.7251 8.9375 9.44385L9 9.38135L9.0625 9.44385C9.46875 9.7251 9.84375 10.0063 10.3125 10.1938C10.7812 10.4126 11.4062 10.6001 12 10.6001C12.5938 10.6001 13.2188 10.4126 13.6875 10.1938C14.1562 10.0063 14.5312 9.7251 14.9375 9.44385L15 9.38135L15.0625 9.44385C15.4688 9.7251 15.8438 10.0063 16.3125 10.1938C16.8125 10.4126 17.4062 10.6001 18 10.6001V12.6001C17 12.6001 16.125 12.3188 15.5 12.0376C15.3125 11.9438 15.1562 11.8501 15 11.7876C14.875 11.8501 14.6875 11.9438 14.5312 12.0376C13.9062 12.3188 13 12.6001 12 12.6001C11 12.6001 10.125 12.3188 9.5 12.0376C9.3125 11.9438 9.15625 11.8501 9 11.7876ZM8.5 7.5376C7.875 7.81885 6.96875 8.1001 6 8.1001C5 8.1001 4.09375 7.81885 3.46875 7.5376C3.28125 7.44385 3.125 7.3501 3 7.2876C2.84375 7.3501 2.6875 7.44385 2.5 7.5376C1.875 7.81885 0.96875 8.1001 0 8.1001V6.1001C0.59375 6.1001 1.1875 5.9126 1.6875 5.69385C2.125 5.50635 2.5 5.2251 2.9375 4.94385C2.9375 4.9126 2.96875 4.9126 3 4.88135C3 4.9126 3.03125 4.9126 3.0625 4.94385C3.46875 5.2251 3.84375 5.50635 4.3125 5.69385C4.78125 5.9126 5.375 6.1001 6 6.1001C6.59375 6.1001 7.1875 5.9126 7.6875 5.69385C8.15625 5.50635 8.53125 5.2251 8.9375 4.94385C8.9375 4.9126 8.96875 4.9126 9 4.88135C9.03125 4.9126 9.03125 4.9126 9.0625 4.94385C9.46875 5.2251 9.84375 5.50635 10.3125 5.69385C10.7812 5.9126 11.4062 6.1001 12 6.1001C12.5938 6.1001 13.2188 5.9126 13.6875 5.69385C14.1562 5.50635 14.5312 5.2251 14.9375 4.94385C14.9688 4.9126 14.9688 4.9126 15 4.88135C15.0312 4.9126 15.0312 4.9126 15.0625 4.94385C15.4688 5.2251 15.8438 5.50635 16.3125 5.69385C16.8125 5.9126 17.4062 6.1001 18 6.1001V8.1001C17 8.1001 16.125 7.81885 15.5 7.5376C15.3125 7.44385 15.1562 7.3501 15 7.2876C14.875 7.3501 14.6875 7.44385 14.5312 7.5376C13.9062 7.81885 13 8.1001 12 8.1001C11 8.1001 10.125 7.81885 9.5 7.5376C9.3125 7.44385 9.15625 7.3501 9 7.2876C8.875 7.3501 8.6875 7.44385 8.53125 7.5376H8.5Z" fill="black"/>
</svg>
