<svg width="19" height="17" viewBox="0 0 19 17" fill="none" xmlns="http://www.w3.org/2000/svg">
<path d="M10.8125 9L8.8125 14.5H17H18V16.5H17H1H0V14.5H1H6.6875L8.9375 8.3125L10.8125 9ZM14.5938 9C15.1875 7.3125 15.5 5.5625 15.4375 3.78125V3.59375C15.4062 3.3125 15.375 3.0625 15.3125 2.8125C17.375 4.71875 18.3125 7.625 17.6562 10.4375L14.5 9.28125L14.5938 9ZM14.4375 3.625V3.8125C14.4688 5.46875 14.2188 7.09375 13.6562 8.65625L13.5625 8.9375L6.96875 6.5625L7.0625 6.25C7.65625 4.71875 8.5 3.28125 9.59375 2.03125L9.71875 1.90625C10.4688 1.09375 11.5938 0.78125 12.625 1.15625C12.6562 1.15625 12.6875 1.1875 12.7188 1.1875C13.7188 1.59375 14.375 2.53125 14.4375 3.625ZM2.75 5C4.09375 2.375 6.78125 0.75 9.625 0.65625C9.375 0.8125 9.1875 1.03125 8.96875 1.21875L8.84375 1.375C7.65625 2.6875 6.75 4.25 6.125 5.90625L6.03125 6.21875L2.75 5Z" fill="black"/>
</svg>
