<svg width="22" height="25" viewBox="0 0 22 25" fill="none" xmlns="http://www.w3.org/2000/svg">
<path d="M11 12.8C8.84375 12.8 6.875 11.675 5.79688 9.80005C4.71875 7.97192 4.71875 5.67505 5.79688 3.80005C6.875 1.97192 8.84375 0.800049 11 0.800049C13.1094 0.800049 15.0781 1.97192 16.1562 3.80005C17.2344 5.67505 17.2344 7.97192 16.1562 9.80005C15.0781 11.675 13.1094 12.8 11 12.8ZM8.84375 15.05H13.1094C17.75 15.05 21.5 18.8 21.5 23.4407C21.5 24.1907 20.8438 24.8 20.0938 24.8H1.85938C1.10938 24.8 0.5 24.1907 0.5 23.4407C0.5 18.8 4.20312 15.05 8.84375 15.05Z" fill="black"/>
</svg>
