<svg width="20" height="15" viewBox="0 0 20 15" fill="none" xmlns="http://www.w3.org/2000/svg">
<path d="M1 0.600098H6H11H15H15.4375L15.75 0.975098L19.75 5.7251L20 6.00635V6.3501V10.6001V11.6001H19H18C18 13.2563 16.6562 14.6001 15 14.6001C13.3438 14.6001 12 13.2563 12 11.6001H8C8 13.2563 6.65625 14.6001 5 14.6001C3.34375 14.6001 2 13.2563 2 11.6001H1H0V10.6001V1.6001V0.600098H1ZM17.0625 5.6001L14.5312 2.6001H12V5.6001H17.0625ZM2 5.6001H5V2.6001H2V5.6001ZM7 5.6001H10V2.6001H7V5.6001ZM13.5 11.6001C13.5 12.1626 13.7812 12.6313 14.25 12.9126C14.6875 13.1938 15.2812 13.1938 15.75 12.9126C16.1875 12.6313 16.5 12.1626 16.5 11.6001C16.5 11.0688 16.1875 10.6001 15.75 10.3188C15.2812 10.0376 14.6875 10.0376 14.25 10.3188C13.7812 10.6001 13.5 11.0688 13.5 11.6001ZM5 10.1001C4.4375 10.1001 3.96875 10.4126 3.6875 10.8501C3.40625 11.3188 3.40625 11.9126 3.6875 12.3501C3.96875 12.8188 4.4375 13.1001 5 13.1001C5.53125 13.1001 6 12.8188 6.28125 12.3501C6.5625 11.9126 6.5625 11.3188 6.28125 10.8501C6 10.4126 5.53125 10.1001 5 10.1001Z" fill="black"/>
</svg>
