<svg width="23" height="21" viewBox="0 0 23 21" fill="none" xmlns="http://www.w3.org/2000/svg">
<path d="M17.375 9.41663C19.4453 9.41663 21.125 7.73694 21.125 5.66663C21.125 3.59631 19.4453 1.91663 17.375 1.91663C15.9688 1.91663 14.7578 2.69788 14.0938 3.79163H12.0625C12.8438 1.64319 14.9141 0.041626 17.375 0.041626C20.4609 0.041626 23 2.58069 23 5.66663C23 8.79163 20.4609 11.2916 17.375 11.2916C16.2422 11.2916 15.2266 10.9791 14.3672 10.4323L15.7344 9.06506C16.2422 9.29944 16.7891 9.41663 17.375 9.41663ZM0.5 6.29163V5.04163H16.75V6.29163L9.5625 13.4791V18.1666H13V20.0416H9.5625H8.625H4.25V18.1666H7.6875V13.4791L0.5 6.29163Z" fill="black"/>
</svg>
