<svg width="33" height="33" viewBox="0 0 33 33" fill="none" xmlns="http://www.w3.org/2000/svg">
<g clip-path="url(#clip0_3515_153719)">
<path d="M32.8594 16.6992C32.8594 7.86172 25.6969 0.699219 16.8594 0.699219C8.02188 0.699219 0.859375 7.86172 0.859375 16.6992C0.859375 24.1992 6.02812 30.4992 12.9969 32.2305V21.5867H9.69687V16.6992H12.9969V14.593C12.9969 9.14922 15.4594 6.62422 20.8094 6.62422C21.8219 6.62422 23.5719 6.82422 24.2906 7.02422V11.4492C23.9156 11.4117 23.2594 11.3867 22.4406 11.3867C19.8156 11.3867 18.8031 12.3805 18.8031 14.9617V16.6992H24.0281L23.1281 21.5867H18.7969V32.5805C26.7219 31.6242 32.8594 24.8805 32.8594 16.6992Z" fill="white"/>
</g>
<defs>
<clipPath id="clip0_3515_153719">
<rect width="32" height="32" fill="white" transform="translate(0.859375 0.699219)"/>
</clipPath>
</defs>
</svg>
