<svg width="29" height="33" viewBox="0 0 29 33" fill="none" xmlns="http://www.w3.org/2000/svg">
<g clip-path="url(#clip0_3515_153717)">
<path d="M14.8654 9.51191C10.8904 9.51191 7.68418 12.7182 7.68418 16.6932C7.68418 20.6682 10.8904 23.8744 14.8654 23.8744C18.8404 23.8744 22.0467 20.6682 22.0467 16.6932C22.0467 12.7182 18.8404 9.51191 14.8654 9.51191ZM14.8654 21.3619C12.2967 21.3619 10.1967 19.2682 10.1967 16.6932C10.1967 14.1182 12.2904 12.0244 14.8654 12.0244C17.4404 12.0244 19.5342 14.1182 19.5342 16.6932C19.5342 19.2682 17.4342 21.3619 14.8654 21.3619ZM24.0154 9.21816C24.0154 10.1494 23.2654 10.8932 22.3404 10.8932C21.4092 10.8932 20.6654 10.1432 20.6654 9.21816C20.6654 8.29316 21.4154 7.54316 22.3404 7.54316C23.2654 7.54316 24.0154 8.29316 24.0154 9.21816ZM28.7717 10.9182C28.6654 8.67441 28.1529 6.68691 26.5092 5.04941C24.8717 3.41191 22.8842 2.89941 20.6404 2.78691C18.3279 2.65566 11.3967 2.65566 9.08418 2.78691C6.84668 2.89316 4.85918 3.40566 3.21543 5.04316C1.57168 6.68066 1.06543 8.66816 0.95293 10.9119C0.82168 13.2244 0.82168 20.1557 0.95293 22.4682C1.05918 24.7119 1.57168 26.6994 3.21543 28.3369C4.85918 29.9744 6.84043 30.4869 9.08418 30.5994C11.3967 30.7307 18.3279 30.7307 20.6404 30.5994C22.8842 30.4932 24.8717 29.9807 26.5092 28.3369C28.1467 26.6994 28.6592 24.7119 28.7717 22.4682C28.9029 20.1557 28.9029 13.2307 28.7717 10.9182ZM25.7842 24.9494C25.2967 26.1744 24.3529 27.1182 23.1217 27.6119C21.2779 28.3432 16.9029 28.1744 14.8654 28.1744C12.8279 28.1744 8.44668 28.3369 6.60918 27.6119C5.38418 27.1244 4.44043 26.1807 3.94668 24.9494C3.21543 23.1057 3.38418 18.7307 3.38418 16.6932C3.38418 14.6557 3.22168 10.2744 3.94668 8.43691C4.43418 7.21191 5.37793 6.26816 6.60918 5.77441C8.45293 5.04316 12.8279 5.21191 14.8654 5.21191C16.9029 5.21191 21.2842 5.04941 23.1217 5.77441C24.3467 6.26191 25.2904 7.20566 25.7842 8.43691C26.5154 10.2807 26.3467 14.6557 26.3467 16.6932C26.3467 18.7307 26.5154 23.1119 25.7842 24.9494Z" fill="white"/>
</g>
<defs>
<clipPath id="clip0_3515_153717">
<rect width="28" height="32" fill="white" transform="translate(0.859375 0.699219)"/>
</clipPath>
</defs>
</svg>
