<svg width="29" height="33" viewBox="0 0 29 33" fill="none" xmlns="http://www.w3.org/2000/svg">
<g clip-path="url(#clip0_3515_153715)">
<path d="M26.8594 2.7002H2.85312C1.75312 2.7002 0.859375 3.60645 0.859375 4.71895V28.6814C0.859375 29.7939 1.75312 30.7002 2.85312 30.7002H26.8594C27.9594 30.7002 28.8594 29.7939 28.8594 28.6814V4.71895C28.8594 3.60645 27.9594 2.7002 26.8594 2.7002ZM9.32187 26.7002H5.17188V13.3377H9.32812V26.7002H9.32187ZM7.24687 11.5127C5.91562 11.5127 4.84063 10.4314 4.84063 9.10645C4.84063 7.78145 5.91562 6.7002 7.24687 6.7002C8.57187 6.7002 9.65312 7.78145 9.65312 9.10645C9.65312 10.4377 8.57812 11.5127 7.24687 11.5127ZM24.8781 26.7002H20.7281V20.2002C20.7281 18.6502 20.6969 16.6564 18.5719 16.6564C16.4094 16.6564 16.0781 18.3439 16.0781 20.0877V26.7002H11.9281V13.3377H15.9094V15.1627H15.9656C16.5219 14.1127 17.8781 13.0064 19.8969 13.0064C24.0969 13.0064 24.8781 15.7752 24.8781 19.3752V26.7002Z" fill="white"/>
</g>
<defs>
<clipPath id="clip0_3515_153715">
<rect width="28" height="32" fill="white" transform="translate(0.859375 0.699219)"/>
</clipPath>
</defs>
</svg>
