<svg width="117" height="48" viewBox="0 0 117 48" fill="none" xmlns="http://www.w3.org/2000/svg">
<g filter="url(#filter0_b_715_17923)">
<path fill-rule="evenodd" clip-rule="evenodd" d="M39.9622 24C39.9622 33.5357 46.6408 40 56.7837 40C66.9266 40 73.6052 33.5357 73.6052 24C73.6052 14.4643 66.9266 8 56.7837 8C46.6408 8 39.9622 14.4643 39.9622 24ZM29.5358 39H38.3573L32.8573 29C35.5716 27.25 37.4644 24.3214 37.4644 20.2143C37.4644 12.6429 32.9287 9 24.6786 9H8V39H16.9643V30.8571H25.1786L29.5358 39ZM16.9643 24.1071V16.4643H24.1072C26.9644 16.4643 28.5001 17.8214 28.5001 20.2857C28.5001 22.75 26.9644 24.1071 24.1072 24.1071H16.9643ZM93.1505 40C83.1504 40 76.4361 33.5357 76.4361 24C76.4361 14.4643 83.1504 8 93.1505 8C100.222 8 107.472 11.1071 108.615 20.8214H100.043C99.0791 17.3571 96.5434 15.75 93.1505 15.75C88.7576 15.75 85.329 19.0357 85.329 24C85.329 28.9286 88.7576 32.25 93.1505 32.25C96.5434 32.25 99.0791 30.6429 100.043 27.1071H108.615C107.472 36.8929 100.293 40 93.1505 40ZM60.4255 20.6561L56.9783 12.4961L53.5312 20.6561L45.3711 24.1032L53.5312 27.5504L56.9783 35.7104L60.4255 27.5504L68.5855 24.1032L60.4255 20.6561Z" fill="black" fill-opacity="0.2"/>
</g>
<path fill-rule="evenodd" clip-rule="evenodd" d="M43.8139 44.8504C42.3527 46.213 40.4104 47 38.3572 47H29.5358C27.0589 47 24.7509 45.8555 23.2501 43.9491C21.7852 45.8072 19.514 47 16.9643 47H7.99999C3.58172 47 0 43.4183 0 39V9.00002C0 4.58173 3.58172 1 7.99999 1H24.6786C29.8138 1 35.1963 2.11253 39.3736 5.69555C39.4944 5.79917 39.6132 5.90395 39.7299 6.00986C44.3107 1.98174 50.3262 0 56.7836 0C63.5699 0 69.8681 2.18873 74.5259 6.64123C74.6939 6.80182 74.8589 6.96458 75.021 7.12946C75.18 6.96744 75.3418 6.80749 75.5064 6.64965C80.1413 2.20561 86.408 0 93.1504 0C97.7308 0 103.095 0.989341 107.699 4.21786C112.567 7.63139 115.746 12.9702 116.56 19.8867C116.725 21.2888 116.515 22.6931 115.972 23.9643C116.514 25.2334 116.724 26.6353 116.561 28.0352C115.754 34.9449 112.623 40.3126 107.749 43.7567C103.137 47.0155 97.7547 48 93.1504 48C86.408 48 80.1413 45.7944 75.5064 41.3504C75.3418 41.1925 75.18 41.0326 75.021 40.8705C74.8589 41.0354 74.6939 41.1982 74.5259 41.3588C69.8681 45.8113 63.5699 48 56.7836 48C52.102 48 47.6526 46.9583 43.8139 44.8504ZM46.0531 36.8145C47.1076 37.5818 48.283 38.2227 49.5666 38.7236C49.6151 38.7425 49.6638 38.7612 49.7125 38.7798C51.8051 39.5741 54.1803 40 56.7836 40C59.4716 40 61.9163 39.546 64.0579 38.7011C64.1968 38.6463 64.3345 38.5898 64.4709 38.5317C66.8923 37.5004 68.9063 35.9558 70.4215 33.9945C71.0579 33.1706 71.6063 32.2732 72.06 31.3094C73.0654 29.1731 73.6051 26.7106 73.6051 24C73.6051 21.4015 73.1092 19.031 72.1823 16.9573C71.7062 15.892 71.1163 14.9049 70.4215 14.0055C68.8843 12.0156 66.8335 10.4547 64.3648 9.42348C64.3458 9.41555 64.3268 9.40765 64.3077 9.39978C62.1072 8.49022 59.5767 8.00002 56.7836 8.00002C54.1638 8.00002 51.7752 8.43128 49.673 9.23532C47.5464 10.0487 45.713 11.2436 44.2301 12.7594C42.9807 14.0366 41.9801 15.5417 41.2627 17.2384C40.8671 18.1741 40.5575 19.1681 40.3399 20.2143C40.0909 21.4109 39.9621 22.6758 39.9621 24C39.9621 24.4773 39.9789 24.9468 40.0119 25.4083C40.1587 27.4576 40.6276 29.3468 41.3831 31.0386C41.4747 31.2436 41.5704 31.4456 41.6702 31.6447C42.4159 33.131 43.3926 34.4521 44.5742 35.5806C45.0364 36.0219 45.5299 36.4338 46.0531 36.8145ZM68.5854 24.1032L60.4254 20.6561L56.9783 12.4961L53.5311 20.6561L45.3711 24.1032L53.5311 27.5504L56.9783 35.7104L60.4254 27.5504L68.5854 24.1032ZM33.1526 28.8026C34.8046 27.6589 36.1227 26.058 36.8482 24C37.2449 22.8748 37.4644 21.6129 37.4644 20.2143C37.4644 16.7856 36.5342 14.1626 34.7503 12.3186C33.4831 11.0088 31.785 10.0921 29.6835 9.55896C28.2103 9.18524 26.5389 9.00002 24.6786 9.00002H7.99999V39H16.9643V30.8571H25.1786L29.5358 39H38.3572L32.8572 29C32.9568 28.9358 33.0553 28.87 33.1526 28.8026ZM26.9917 17.1638C26.4536 16.8188 25.7755 16.598 24.9643 16.509C24.8708 16.4988 24.7756 16.4903 24.6786 16.4835C24.4944 16.4707 24.304 16.4643 24.1072 16.4643H16.9643V24.1071H24.1072C24.4076 24.1071 24.6934 24.0921 24.9643 24.0624C25.0368 24.0545 25.1082 24.0455 25.1786 24.0354C26.0745 23.9074 26.7971 23.6096 27.3367 23.1535C28.1029 22.5058 28.5001 21.5389 28.5001 20.2857C28.5001 18.8563 27.9833 17.7994 26.9917 17.1638ZM76.474 22.7709C76.4488 23.1746 76.436 23.5844 76.436 24C76.436 24.4662 76.4521 24.9251 76.4838 25.3763C76.7196 28.7315 77.8209 31.6587 79.6231 33.9948C81.4941 36.4201 84.1205 38.2081 87.3177 39.1765C89.0959 39.715 91.0507 40 93.1504 40C95.1916 40 97.2358 39.7462 99.1412 39.1554C101.559 38.4056 103.754 37.113 105.435 35.1072C106.783 33.4994 107.801 31.4334 108.34 28.8215C108.453 28.2742 108.545 27.7031 108.615 27.1071H100.043C99.8737 27.7289 99.6555 28.2909 99.3927 28.7952C98.7013 30.1213 97.7007 31.0471 96.4614 31.6042C95.4924 32.0398 94.3774 32.25 93.1504 32.25C92.0249 32.25 90.9626 32.032 90.0052 31.6247C87.2257 30.4425 85.3289 27.6658 85.3289 24C85.3289 20.322 87.2109 17.5654 89.9728 16.3838C90.9387 15.9706 92.0122 15.75 93.1504 15.75C94.4029 15.75 95.5386 15.969 96.5216 16.4197C97.7236 16.9707 98.6971 17.8681 99.3766 19.1347C99.6467 19.6382 99.8702 20.1999 100.043 20.8214H108.615C108.545 20.2254 108.451 19.6542 108.337 19.1071C107.789 16.4911 106.748 14.4254 105.373 12.8214C103.726 10.899 101.599 9.64003 99.2666 8.8923C97.3185 8.26791 95.2267 8.00002 93.1504 8.00002C91.0338 8.00002 89.0644 8.28961 87.2747 8.83663C84.0969 9.80792 81.4857 11.5908 79.6231 14.0053C77.7946 16.3754 76.6876 19.354 76.474 22.7709Z" fill="white"/>
<defs>
<filter id="filter0_b_715_17923" x="-12" y="-12" width="140.615" height="72" filterUnits="userSpaceOnUse" color-interpolation-filters="sRGB">
<feFlood flood-opacity="0" result="BackgroundImageFix"/>
<feGaussianBlur in="BackgroundImageFix" stdDeviation="10"/>
<feComposite in2="SourceAlpha" operator="in" result="effect1_backgroundBlur_715_17923"/>
<feBlend mode="normal" in="SourceGraphic" in2="effect1_backgroundBlur_715_17923" result="shape"/>
</filter>
</defs>
</svg>
