<svg width="16" height="16" viewBox="0 0 16 16" fill="none" xmlns="http://www.w3.org/2000/svg">
<path d="M6 0.00244141C6.53125 0.00244141 7 0.314941 7.28125 0.752441C7.5625 1.22119 7.5625 1.81494 7.28125 2.25244C7 2.72119 6.53125 3.00244 6 3.00244C5.4375 3.00244 4.96875 2.72119 4.6875 2.25244C4.40625 1.81494 4.40625 1.22119 4.6875 0.752441C4.96875 0.314941 5.4375 0.00244141 6 0.00244141ZM1.5 11.0024C1.5 12.9399 3.0625 14.5024 5 14.5024C6.53125 14.5024 7.875 13.5024 8.3125 12.0962L9.75 12.5337C9.09375 14.5649 7.21875 16.0024 5 16.0024C2.21875 16.0024 0 13.7837 0 11.0024C0 8.56494 1.75 6.53369 4.0625 6.09619L4.34375 7.56494C2.71875 7.87744 1.5 9.31494 1.5 11.0024ZM4.78125 4.00244H6H7H7.8125L7.96875 4.81494L8.09375 5.50244H10.5H11.5V7.50244H10.5H8.5L8.8125 9.00244H12H12.6875L12.9375 9.65869L14.0938 12.7524L14.4062 12.6587L15.375 12.3149L16 14.2212L15.0625 14.5337L13.8125 14.9712L12.9062 15.2837L12.5625 14.3774L11.2812 11.0024H8H7.96875H7H6.15625L6 10.2212L5 5.22119L4.78125 4.00244Z" fill="white"/>
</svg>
