<svg width="18" height="16" viewBox="0 0 18 16" fill="none" xmlns="http://www.w3.org/2000/svg">
<path d="M9.65625 4.97119L10.5 0.00244141H11.5L12.25 1.00244H14.5L15.5 2.00244H18V3.50244C18 4.90869 16.875 6.00244 15.5 6.00244H14.5H14H13.3125L13.1562 6.97119L9.65625 4.97119ZM13 8.03369V16.0024H10V11.4087C9.25 11.8149 8.375 12.0024 7.5 12.0024C6.59375 12.0024 5.75 11.8149 5 11.4087V16.0024H2V7.75244C1.0625 7.31494 0.40625 6.43994 0.28125 5.37744L0.25 5.15869L0.125 4.15869L2.09375 3.90869L2.21875 4.90869L2.25 5.15869C2.3125 5.65869 2.75 6.03369 3.25 6.03369H4.5H5H5.5H9.46875L13 8.03369ZM14.5 2.50244C14.5 2.25244 14.25 2.00244 14 2.00244C13.7188 2.00244 13.5 2.25244 13.5 2.50244C13.5 2.78369 13.7188 3.00244 14 3.00244C14.25 3.00244 14.5 2.78369 14.5 2.50244Z" fill="white"/>
</svg>
