<svg width="20" height="16" viewBox="0 0 20 16" fill="none" xmlns="http://www.w3.org/2000/svg">
<path d="M7 0.00244141H8.75H9.5V1.50244H8.75H7.59375L7 4.00244H11H12V5.34619C11.375 5.50244 10.8438 5.75244 10.4062 6.00244H1H0V4.00244H1H5.4375L6.25 0.596191L6.40625 0.00244141H7ZM1.25 7.00244H9.125C8.78125 7.37744 8.53125 7.75244 8.34375 8.03369C8.1875 8.31494 8.09375 8.56494 8 8.84619V16.0024H2L1.25 7.00244ZM20 9.00244V10.0024H9V9.00244C9 9.00244 10 6.00244 14.5 6.00244C19 6.00244 20 9.00244 20 9.00244ZM12 7.50244C11.7188 7.50244 11.5 7.72119 11.5 8.00244C11.5 8.28369 11.7188 8.50244 12 8.50244C12.25 8.50244 12.5 8.28369 12.5 8.00244C12.5 7.72119 12.25 7.50244 12 7.50244ZM14 7.50244C14 7.78369 14.2188 8.00244 14.5 8.00244C14.75 8.00244 15 7.78369 15 7.50244C15 7.22119 14.75 7.00244 14.5 7.00244C14.2188 7.00244 14 7.22119 14 7.50244ZM17 7.50244C16.7188 7.50244 16.5 7.72119 16.5 8.00244C16.5 8.28369 16.7188 8.50244 17 8.50244C17.25 8.50244 17.5 8.28369 17.5 8.00244C17.5 7.72119 17.25 7.50244 17 7.50244ZM9 11.0024H20V13.0024H9V11.0024ZM9 14.0024H20V16.0024H9V14.0024Z" fill="white"/>
</svg>
