<svg width="10" height="17" viewBox="0 0 10 17" fill="none" xmlns="http://www.w3.org/2000/svg">
<path d="M3 3.00244C3 2.31494 3.375 1.65869 4 1.28369C4.59375 0.939941 5.375 0.939941 6 1.28369C6.59375 1.65869 7 2.31494 7 3.00244C7 3.72119 6.59375 4.37744 6 4.75244C5.375 5.09619 4.59375 5.09619 4 4.75244C3.375 4.37744 3 3.72119 3 3.00244ZM3.125 6.00244H3.625H6.34375H6.84375L7.125 6.40869L9.375 9.40869L10 10.2212L8.375 11.4087L7.78125 10.6274L7.5 10.2212V16.0024V17.0024H5.5V16.0024V13.0024H4.5V16.0024V17.0024H2.5V16.0024V10.2212L2.1875 10.6274L1.59375 11.4087L0 10.2212L0.59375 9.40869L2.84375 6.40869L3.125 6.00244Z" fill="white"/>
</svg>
