<svg width="16" height="16" viewBox="0 0 16 16" fill="none" xmlns="http://www.w3.org/2000/svg">
<path d="M11 0.00244141V2.00244H12.25H12.9375L13.1875 2.68994L14.6875 7.00244H16V13.5024V16.0024H13V13.5024H3V16.0024H0V13.5024V7.00244H1.28125L2.78125 2.68994L3.03125 2.00244H3.75H5V0.00244141H11ZM11.5312 4.00244H4.4375L3.40625 7.00244H12.5625L11.5312 4.00244ZM3 9.00244C2.4375 9.00244 2 9.47119 2 10.0024C2 10.5649 2.4375 11.0024 3 11.0024C3.53125 11.0024 4 10.5649 4 10.0024C4 9.47119 3.53125 9.00244 3 9.00244ZM12 10.0024C12 10.5649 12.4375 11.0024 13 11.0024C13.5312 11.0024 14 10.5649 14 10.0024C14 9.47119 13.5312 9.00244 13 9.00244C12.4375 9.00244 12 9.47119 12 10.0024Z" fill="white"/>
</svg>
