<svg width="48" height="48" viewBox="0 0 48 48" fill="none" xmlns="http://www.w3.org/2000/svg">
<rect x="1" y="1" width="46" height="46" rx="23" stroke="white" stroke-width="2"/>
<path d="M37.5244 28.5L36.9845 27.0216H33.1536L32.6137 28.5H30.6083L33.925 19.9255H36.2132L39.517 28.5H37.5244ZM35.0691 21.5067L33.6421 25.4404H36.4832L35.0691 21.5067Z" fill="white"/>
<path d="M26.8472 28.5V21.5324H24.3404V19.9255H31.1794V21.5324H28.6854V28.5H26.8472Z" fill="white"/>
<path d="M17.3728 28.5V19.9255H23.4404V21.4939H19.1982V23.3579H23.3504V24.9262H19.1982V26.9188H23.4404V28.5H17.3728Z" fill="white"/>
<path d="M8.84863 28.5V19.9255H13.3608C14.9934 19.9255 15.829 20.9668 15.829 22.1109C15.829 23.1908 15.1605 23.9107 14.3507 24.0778C15.2634 24.2192 15.9961 25.1062 15.9961 26.186C15.9961 27.4716 15.1348 28.5 13.5022 28.5H8.84863ZM10.6741 23.3707H12.9623C13.5794 23.3707 13.965 22.9722 13.965 22.4195C13.965 21.8924 13.5794 21.481 12.9623 21.481H10.6741V23.3707ZM10.6741 26.9445H13.0266C13.7208 26.9445 14.1321 26.546 14.1321 25.9289C14.1321 25.389 13.7465 24.9262 13.0266 24.9262H10.6741V26.9445Z" fill="white"/>
</svg>
