<svg width="48" height="49" viewBox="0 0 48 49" fill="none" xmlns="http://www.w3.org/2000/svg">
<rect y="0.599609" width="48" height="48" rx="24" fill="white" fill-opacity="0.16"/>
<path d="M23.75 25.0996C21.9531 25.0996 20.3125 24.1621 19.4141 22.5996C18.5156 21.0762 18.5156 19.1621 19.4141 17.5996C20.3125 16.0762 21.9531 15.0996 23.75 15.0996C25.5078 15.0996 27.1484 16.0762 28.0469 17.5996C28.9453 19.1621 28.9453 21.0762 28.0469 22.5996C27.1484 24.1621 25.5078 25.0996 23.75 25.0996ZM21.9531 26.9746H25.5078C29.375 26.9746 32.5 30.0996 32.5 33.9668C32.5 34.5918 31.9531 35.0996 31.3281 35.0996H16.1328C15.5078 35.0996 15 34.5918 15 33.9668C15 30.0996 18.0859 26.9746 21.9531 26.9746Z" fill="white"/>
</svg>
