<svg width="48" height="49" viewBox="0 0 48 49" fill="none" xmlns="http://www.w3.org/2000/svg">
<rect y="0.599609" width="48" height="48" rx="24" fill="white" fill-opacity="0.16"/>
<path d="M15.25 18.3496C15.25 17.6855 15.7969 17.0996 16.5 17.0996H31.5C32.1641 17.0996 32.75 17.6855 32.75 18.3496C32.75 19.0527 32.1641 19.5996 31.5 19.5996H16.5C15.7969 19.5996 15.25 19.0527 15.25 18.3496ZM15.25 24.5996C15.25 23.9355 15.7969 23.3496 16.5 23.3496H31.5C32.1641 23.3496 32.75 23.9355 32.75 24.5996C32.75 25.3027 32.1641 25.8496 31.5 25.8496H16.5C15.7969 25.8496 15.25 25.3027 15.25 24.5996ZM32.75 30.8496C32.75 31.5527 32.1641 32.0996 31.5 32.0996H16.5C15.7969 32.0996 15.25 31.5527 15.25 30.8496C15.25 30.1855 15.7969 29.5996 16.5 29.5996H31.5C32.1641 29.5996 32.75 30.1855 32.75 30.8496Z" fill="white"/>
</svg>
