<svg width="18" height="17" viewBox="0 0 18 17" fill="none" xmlns="http://www.w3.org/2000/svg">
<path d="M9 2.09961C6.65625 2.09961 4.53125 3.34961 3.34375 5.34961C2.1875 7.38086 2.1875 9.84961 3.34375 11.8496C4.53125 13.8809 6.65625 15.0996 9 15.0996C11.3125 15.0996 13.4375 13.8809 14.625 11.8496C15.7812 9.84961 15.7812 7.38086 14.625 5.34961C13.4375 3.34961 11.3125 2.09961 9 2.09961ZM9 16.5996C6.125 16.5996 3.5 15.0996 2.0625 12.5996C0.625 10.1309 0.625 7.09961 2.0625 4.59961C3.5 2.13086 6.125 0.599609 9 0.599609C11.8438 0.599609 14.4688 2.13086 15.9062 4.59961C17.3438 7.09961 17.3438 10.1309 15.9062 12.5996C14.4688 15.0996 11.8438 16.5996 9 16.5996ZM7.75 11.0996H8.5V9.09961H7.75C7.3125 9.09961 7 8.78711 7 8.34961C7 7.94336 7.3125 7.59961 7.75 7.59961H9.25C9.65625 7.59961 10 7.94336 10 8.34961V11.0996H10.25C10.6562 11.0996 11 11.4434 11 11.8496C11 12.2871 10.6562 12.5996 10.25 12.5996H7.75C7.3125 12.5996 7 12.2871 7 11.8496C7 11.4434 7.3125 11.0996 7.75 11.0996ZM9 6.59961C8.4375 6.59961 8 6.16211 8 5.59961C8 5.06836 8.4375 4.59961 9 4.59961C9.53125 4.59961 10 5.06836 10 5.59961C10 6.16211 9.53125 6.59961 9 6.59961Z" fill="black"/>
</svg>
