<svg width="120" height="32" viewBox="0 0 120 32" fill="none" xmlns="http://www.w3.org/2000/svg">
<path d="M108.044 11.2482L103.292 0L98.5402 11.2482L87.292 16L98.5402 20.7518L103.292 32L108.044 20.7518L119.292 16L108.044 11.2482Z" fill="white"/>
<path d="M58.5205 15.7835C58.5205 24.5069 65.1163 30.4644 73.4142 30.4644C79.8823 30.4644 83.4568 27.0175 85.4994 23.4856L80.3078 20.975C79.1163 23.3154 76.5631 25.1026 73.4142 25.1026C68.478 25.1026 64.7333 21.1452 64.7333 15.7835C64.7333 10.4217 68.478 6.46426 73.4142 6.46426C76.5631 6.46426 79.1163 8.29406 80.3078 10.5919L85.4994 8.03874C83.4993 4.50681 79.8823 1.10254 73.4142 1.10254C65.1163 1.10254 58.5205 7.06001 58.5205 15.7835Z" fill="white"/>
<path fill-rule="evenodd" clip-rule="evenodd" d="M25.9819 15.7835C25.9819 7.23023 32.2373 1.10254 40.7905 1.10254C49.3863 1.10254 55.6416 7.23023 55.6416 15.7835C55.6416 24.3367 49.3863 30.4644 40.7905 30.4644C32.2373 30.4644 25.9819 24.3367 25.9819 15.7835ZM49.4288 15.7835C49.4288 10.4643 46.0246 6.46426 40.7905 6.46426C35.5564 6.46426 32.1947 10.4643 32.1947 15.7835C32.1947 21.0601 35.5564 25.1026 40.7905 25.1026C46.0246 25.1026 49.4288 21.0601 49.4288 15.7835Z" fill="white"/>
<path fill-rule="evenodd" clip-rule="evenodd" d="M10.4681 19.7841L16.0426 29.9544H22.9788L16.5958 19.1458C19.6597 18.4224 22.8086 15.7416 22.8086 10.7203C22.8086 5.44365 19.1916 1.57129 13.2767 1.57129H0V29.9544H6.04258V19.7841H10.4681ZM12.383 6.7628C14.8086 6.7628 16.6384 8.29473 16.6384 10.6777C16.6384 13.0607 14.8086 14.5926 12.383 14.5926H6.04258V6.7628H12.383Z" fill="white"/>
</svg>
