<svg width="12" height="17" viewBox="0 0 12 17" fill="none" xmlns="http://www.w3.org/2000/svg">
<path d="M0 2.09961C0 1.28711 0.65625 0.599609 1.5 0.599609V2.09961V14.4121L5.5625 11.5059C5.8125 11.3184 6.15625 11.3184 6.4375 11.5059L10.5 14.4121V2.09961H1.5V0.599609H10.5C11.3125 0.599609 12 1.28711 12 2.09961V15.8496C12 16.1309 11.8438 16.4121 11.5938 16.5371C11.3438 16.6621 11.0312 16.6309 10.8125 16.4746L6 13.0371L1.15625 16.4746C0.9375 16.6309 0.65625 16.6621 0.40625 16.5371C0.15625 16.4121 0 16.1309 0 15.8496V2.09961Z" fill="black"/>
</svg>
