<svg width="16" height="15" viewBox="0 0 16 15" fill="none" xmlns="http://www.w3.org/2000/svg">
<path d="M9.59375 1.09375C9.9375 0.9375 10.375 1 10.6562 1.28125L15.6562 5.78125C15.875 5.96875 16 6.21875 16 6.5C16 6.8125 15.875 7.0625 15.6562 7.25L10.6562 11.75C10.375 12.0312 9.9375 12.0938 9.59375 11.9375C9.21875 11.7812 9 11.4062 9 11V9H6C4.34375 9 3 10.3438 3 12C3 12.9688 3.375 13.5 3.6875 13.7812C3.84375 13.9375 4 14.1562 4 14.4062C4 14.75 3.71875 15 3.375 15C3.28125 15 3.1875 15 3.125 14.9688C2.53125 14.625 0 13.0625 0 9.5C0 6.46875 2.4375 4 5.5 4H9V2C9 1.625 9.21875 1.25 9.59375 1.09375Z" fill="black"/>
</svg>
