<svg width="18" height="21" viewBox="0 0 18 21" fill="none" xmlns="http://www.w3.org/2000/svg">
<path d="M8.75 10.5C6.95312 10.5 5.3125 9.5625 4.41406 8C3.51562 6.47656 3.51562 4.5625 4.41406 3C5.3125 1.47656 6.95312 0.5 8.75 0.5C10.5078 0.5 12.1484 1.47656 13.0469 3C13.9453 4.5625 13.9453 6.47656 13.0469 8C12.1484 9.5625 10.5078 10.5 8.75 10.5ZM6.95312 12.375H10.5078C14.375 12.375 17.5 15.5 17.5 19.3672C17.5 19.9922 16.9531 20.5 16.3281 20.5H1.13281C0.507812 20.5 0 19.9922 0 19.3672C0 15.5 3.08594 12.375 6.95312 12.375Z" fill="white"/>
</svg>
