<svg width="13" height="12" viewBox="0 0 13 12" fill="none" xmlns="http://www.w3.org/2000/svg">
<path d="M3.22461 2.3418L2.61523 4.09375H10.3594L9.75 2.3418C9.59766 1.93555 9.2168 1.65625 8.78516 1.65625H4.18945C3.75781 1.65625 3.37695 1.93555 3.22461 2.3418ZM1.21875 4.42383L2.08203 1.93555C2.38672 1.04688 3.25 0.4375 4.18945 0.4375H8.78516C9.75 0.4375 10.5879 1.04688 10.8926 1.93555L11.7812 4.42383C12.4922 4.85547 13 5.64258 13 6.53125V8.5625V9.78125V11.2031C13 11.5586 12.7207 11.8125 12.3906 11.8125C12.0352 11.8125 11.7812 11.5586 11.7812 11.2031V9.78125H1.21875V11.2031C1.21875 11.5586 0.939453 11.8125 0.609375 11.8125C0.253906 11.8125 0 11.5586 0 11.2031V9.78125V8.5625V6.53125C0 5.64258 0.482422 4.85547 1.21875 4.42383ZM10.5625 5.3125H2.4375C1.75195 5.3125 1.21875 5.87109 1.21875 6.53125V8.5625H11.7812V6.53125C11.7812 5.87109 11.2227 5.3125 10.5625 5.3125ZM2.84375 6.125C3.27539 6.125 3.65625 6.50586 3.65625 6.9375C3.65625 7.39453 3.27539 7.75 2.84375 7.75C2.38672 7.75 2.03125 7.39453 2.03125 6.9375C2.03125 6.50586 2.38672 6.125 2.84375 6.125ZM9.34375 6.9375C9.34375 6.50586 9.69922 6.125 10.1562 6.125C10.5879 6.125 10.9688 6.50586 10.9688 6.9375C10.9688 7.39453 10.5879 7.75 10.1562 7.75C9.69922 7.75 9.34375 7.39453 9.34375 6.9375Z" fill="white"/>
</svg>
