<svg width="18" height="14" viewBox="0 0 18 14" fill="none" xmlns="http://www.w3.org/2000/svg">
<path opacity="0.72" d="M12.375 1.84375C12.375 2.30078 12.1211 2.68164 11.7656 2.91016C11.3848 3.13867 10.9023 3.13867 10.5469 2.91016C10.166 2.68164 9.9375 2.30078 9.9375 1.84375C9.9375 1.41211 10.166 1.03125 10.5469 0.802734C10.9023 0.574219 11.3848 0.574219 11.7656 0.802734C12.1211 1.03125 12.375 1.41211 12.375 1.84375ZM6.28125 10.375C6.28125 9.66406 5.875 9.00391 5.26562 8.62305C4.63086 8.26758 3.84375 8.26758 3.23438 8.62305C2.59961 9.00391 2.21875 9.66406 2.21875 10.375C2.21875 11.1113 2.59961 11.7715 3.23438 12.1523C3.84375 12.5078 4.63086 12.5078 5.26562 12.1523C5.875 11.7715 6.28125 11.1113 6.28125 10.375ZM4.25 7.125C5.39258 7.125 6.45898 7.75977 7.04297 8.75C7.62695 9.76562 7.62695 11.0098 7.04297 12C6.45898 13.0156 5.39258 13.625 4.25 13.625C3.08203 13.625 2.01562 13.0156 1.43164 12C0.847656 11.0098 0.847656 9.76562 1.43164 8.75C2.01562 7.75977 3.08203 7.125 4.25 7.125ZM16.0312 10.375C16.0312 9.66406 15.625 9.00391 15.0156 8.62305C14.3809 8.26758 13.5938 8.26758 12.9844 8.62305C12.3496 9.00391 11.9688 9.66406 11.9688 10.375C11.9688 11.1113 12.3496 11.7715 12.9844 12.1523C13.5938 12.5078 14.3809 12.5078 15.0156 12.1523C15.625 11.7715 16.0312 11.1113 16.0312 10.375ZM14 7.125C15.1426 7.125 16.209 7.75977 16.793 8.75C17.377 9.76562 17.377 11.0098 16.793 12C16.209 13.0156 15.1426 13.625 14 13.625C12.832 13.625 11.7656 13.0156 11.1816 12C10.5977 11.0098 10.5977 9.76562 11.1816 8.75C11.7656 7.75977 12.832 7.125 14 7.125ZM9.6582 4.43359L7.75391 5.83008C7.52539 6.00781 7.55078 6.38867 7.83008 6.51562L9.58203 7.4043C9.78516 7.50586 9.9375 7.70898 9.9375 7.9375V11.1875C9.9375 11.543 9.6582 11.7969 9.32812 11.7969C8.97266 11.7969 8.71875 11.543 8.71875 11.1875V8.31836L7.27148 7.60742C6.20508 7.07422 6.07812 5.57617 7.04297 4.83984L8.94727 3.44336C9.55664 3.01172 10.4199 3.11328 10.9023 3.69727L11.8418 4.89062H13.1875C13.5176 4.89062 13.7969 5.16992 13.7969 5.5C13.7969 5.85547 13.5176 6.10938 13.1875 6.10938H11.5625C11.3594 6.10938 11.1816 6.0332 11.0801 5.88086L9.9375 4.45898C9.86133 4.38281 9.75977 4.38281 9.6582 4.43359Z" fill="black"/>
</svg>
