<svg width="10" height="14" viewBox="0 0 10 14" fill="none" xmlns="http://www.w3.org/2000/svg">
<path opacity="0.72" d="M5.0625 1.84375C5.0625 1.41211 5.29102 1.03125 5.67188 0.802734C6.02734 0.574219 6.50977 0.574219 6.89062 0.802734C7.24609 1.03125 7.5 1.41211 7.5 1.84375C7.5 2.30078 7.24609 2.68164 6.89062 2.91016C6.50977 3.13867 6.02734 3.13867 5.67188 2.91016C5.29102 2.68164 5.0625 2.30078 5.0625 1.84375ZM5.3418 5.11914L4.58008 7.4043C4.55469 7.48047 4.58008 7.58203 4.65625 7.63281L5.0625 7.96289L5.90039 5.32227C5.90039 5.32227 5.90039 5.32227 5.90039 5.29688C5.72266 5.2207 5.54492 5.14453 5.3418 5.11914ZM6.81445 6.46484L6.07812 8.80078L7.34766 9.81641C7.52539 9.96875 7.65234 10.1719 7.70312 10.375L8.28711 12.8887C8.36328 13.2188 8.16016 13.5488 7.83008 13.625C7.5 13.7012 7.16992 13.498 7.09375 13.168L6.53516 10.7305L3.89453 8.57227C3.4375 8.19141 3.23438 7.58203 3.4375 7.02344L4.02148 5.29688C3.38672 5.52539 2.87891 6.00781 2.59961 6.64258L2.3457 7.17578C2.21875 7.48047 1.86328 7.63281 1.55859 7.48047C1.25391 7.35352 1.10156 6.99805 1.25391 6.69336L1.48242 6.13477C1.91406 5.16992 2.75195 4.4082 3.76758 4.07812C4.14844 3.95117 4.55469 3.875 4.96094 3.875H5.08789C6.4082 3.875 7.60156 4.76367 7.95703 6.05859L8.23633 7.02344L8.94727 7.70898C9.17578 7.96289 9.17578 8.34375 8.94727 8.57227C8.69336 8.82617 8.3125 8.82617 8.08398 8.57227L7.34766 7.83594C7.2207 7.73438 7.11914 7.58203 7.06836 7.4043L6.81445 6.46484ZM2.9043 10.8574L3.51367 9.33398L4.50391 10.1211L4.02148 11.3398C3.9707 11.4668 3.89453 11.5938 3.79297 11.6953L2.04102 13.4473C1.78711 13.7012 1.40625 13.7012 1.17773 13.4473C0.923828 13.2188 0.923828 12.8379 1.17773 12.6094L2.9043 10.8574Z" fill="black"/>
</svg>
