<?xml version="1.0" standalone="no"?>
<!DOCTYPE svg PUBLIC "-//W3C//DTD SVG 20010904//EN"
 "http://www.w3.org/TR/2001/REC-SVG-20010904/DTD/svg10.dtd">
<svg version="1.0" xmlns="http://www.w3.org/2000/svg"
 width="512.000000pt" height="512.000000pt" viewBox="0 0 512.000000 512.000000"
 preserveAspectRatio="xMidYMid meet">
<metadata>
Created by potrace 1.14, written by Peter Selinger 2001-2017
</metadata>
<g transform="translate(0.000000,512.000000) scale(0.100000,-0.100000)"
fill="#000000" stroke="none">
<path d="M0 2560 l0 -2560 2560 0 2560 0 0 2560 0 2560 -2560 0 -2560 0 0
-2560z m2788 950 l217 -513 505 -213 c278 -117 511 -216 519 -221 9 -6 -160
-82 -507 -228 l-519 -219 -219 -519 c-144 -342 -222 -514 -227 -505 -5 7 -104
240 -222 518 l-213 505 -523 222 c-453 192 -520 223 -499 231 111 42 1008 426
1017 435 7 7 107 236 223 510 221 524 219 521 227 514 2 -3 102 -236 221 -517z"/>
</g>
</svg>
