<svg width="18" height="17" viewBox="0 0 18 17" fill="none" xmlns="http://www.w3.org/2000/svg">
<path d="M0.75 0.00244141H3H3.59375L3.71875 0.627441L3.8125 1.00244H18L15.5 9.00244H5.3125L5.59375 10.5024H15.25H16V12.0024H15.25H5H4.375L4.25 11.4087L2.375 1.50244H0.75H0V0.00244141H0.75ZM5.5 16.0024C4.9375 16.0024 4.46875 15.7212 4.1875 15.2524C3.90625 14.8149 3.90625 14.2212 4.1875 13.7524C4.46875 13.3149 4.9375 13.0024 5.5 13.0024C6.03125 13.0024 6.5 13.3149 6.78125 13.7524C7.0625 14.2212 7.0625 14.8149 6.78125 15.2524C6.5 15.7212 6.03125 16.0024 5.5 16.0024ZM16 14.5024C16 15.0649 15.6875 15.5337 15.25 15.8149C14.7812 16.0962 14.1875 16.0962 13.75 15.8149C13.2812 15.5337 13 15.0649 13 14.5024C13 13.9712 13.2812 13.5024 13.75 13.2212C14.1875 12.9399 14.7812 12.9399 15.25 13.2212C15.6875 13.5024 16 13.9712 16 14.5024Z" fill="white"/>
</svg>
